<?xml version="1.0" encoding="UTF-8" standalone="no"?>
<!DOCTYPE svg PUBLIC "-//W3C//DTD SVG 20010904//EN"
              "http://www.w3.org/TR/2001/REC-SVG-20010904/DTD/svg10.dtd">

<svg xmlns="http://www.w3.org/2000/svg"
     width="2in" height="2in"
     viewBox="0 0 600 600">
  <path id="Selection"
        fill="#8E96A9" stroke="black" stroke-width="1"
        d="M 60.00,85.00
           C 60.00,85.00 60.00,529.00 60.00,529.00
             60.00,529.00 43.00,529.00 43.00,529.00
             43.00,529.00 43.00,546.00 43.00,546.00
             43.00,546.00 555.00,546.00 555.00,546.00
             555.00,546.00 555.00,529.00 555.00,529.00
             555.00,529.00 538.00,529.00 538.00,529.00
             538.00,529.00 538.00,85.00 538.00,85.00
             549.70,85.00 554.83,84.72 555.00,71.00
             555.00,71.00 555.00,50.00 555.00,50.00
             554.99,46.20 555.15,41.49 552.91,38.22
             548.82,32.24 532.84,34.00 526.00,34.00
             526.00,34.00 438.00,34.00 438.00,34.00
             438.00,34.00 59.00,34.00 59.00,34.00
             54.93,34.01 49.67,33.83 46.42,36.70
             43.27,39.47 43.05,44.11 43.00,48.00
             43.00,48.00 43.00,70.00 43.00,70.00
             43.02,74.22 43.08,79.38 46.42,82.49
             49.73,85.58 55.75,85.00 60.00,85.00 Z
           M 538.00,51.00
           C 538.00,51.00 538.00,69.00 538.00,69.00
             538.00,69.00 60.00,69.00 60.00,69.00
             60.00,69.00 60.00,51.00 60.00,51.00
             60.00,51.00 538.00,51.00 538.00,51.00 Z
           M 521.00,85.00
           C 521.00,85.00 521.00,529.00 521.00,529.00
             521.00,529.00 77.00,529.00 77.00,529.00
             77.00,529.00 77.00,85.00 77.00,85.00
             77.00,85.00 521.00,85.00 521.00,85.00 Z
           M 95.00,103.00
           C 95.00,103.00 95.00,119.00 95.00,119.00
             95.00,119.00 188.00,119.00 188.00,119.00
             188.00,119.00 188.00,103.00 188.00,103.00
             188.00,103.00 95.00,103.00 95.00,103.00 Z
           M 291.00,170.00
           C 291.00,170.00 291.00,205.00 291.00,205.00
             291.00,205.00 252.00,205.00 252.00,205.00
             250.11,205.03 247.83,205.03 246.02,205.57
             235.01,208.82 243.24,224.57 238.40,229.40
             236.77,231.04 234.14,230.96 232.00,231.00
             232.00,231.00 213.00,231.00 213.00,231.00
             213.00,231.00 213.00,218.00 213.00,218.00
             213.00,215.32 213.22,211.56 211.83,209.21
             208.32,203.30 194.25,205.00 188.00,205.00
             188.00,205.00 109.00,205.00 109.00,205.00
             104.88,205.01 99.57,204.64 96.74,208.28
             94.32,211.38 95.00,219.04 95.00,223.00
             95.00,223.00 95.00,260.00 95.00,260.00
             95.00,262.76 94.78,266.37 96.17,268.82
             97.67,271.44 101.42,273.49 104.00,274.99
             112.30,279.78 121.47,281.99 131.00,282.00
             138.19,282.01 141.98,281.93 149.00,279.64
             157.61,276.83 162.52,273.12 172.00,273.00
             172.00,273.00 198.00,273.00 198.00,273.00
             201.72,272.99 206.50,273.17 209.66,270.91
             214.70,267.31 213.00,252.92 213.00,247.00
             213.00,247.00 240.00,247.00 240.00,247.00
             240.00,251.83 238.98,266.23 241.74,269.58
             244.32,272.73 249.26,272.95 253.00,273.00
             253.00,273.00 291.00,273.00 291.00,273.00
             291.00,273.00 291.00,295.00 291.00,295.00
             290.83,303.86 286.01,304.73 279.00,308.72
             279.00,308.72 245.00,328.28 245.00,328.28
             240.35,330.92 232.68,334.32 231.47,340.00
             229.88,347.48 241.70,352.13 247.00,355.15
             247.00,355.15 276.00,371.72 276.00,371.72
             279.70,373.82 288.87,378.32 290.40,382.10
             291.12,383.87 291.00,387.05 291.00,389.00
             291.00,389.00 291.00,427.00 291.00,427.00
             273.89,427.00 258.40,424.64 246.53,440.00
             230.74,460.43 244.15,493.67 271.00,494.00
             271.00,494.00 315.00,494.00 315.00,494.00
             325.96,494.00 334.45,495.20 344.00,488.37
             362.53,475.10 363.40,446.05 344.00,433.10
             332.26,425.27 320.33,427.00 307.00,427.00
             307.00,427.00 307.00,409.00 307.00,409.00
             307.00,409.00 439.00,409.00 439.00,409.00
             442.62,408.99 446.78,409.36 449.57,406.57
             451.96,404.18 451.95,401.14 452.00,398.00
             452.00,398.00 452.00,375.00 452.00,375.00
             452.00,375.00 489.00,375.00 489.00,375.00
             492.41,374.99 496.90,375.24 499.77,373.15
             503.21,370.65 502.98,366.79 503.00,363.00
             503.00,363.00 503.00,320.00 503.00,320.00
             503.00,316.94 503.32,312.91 501.26,310.42
             498.68,307.27 493.74,307.05 490.00,307.00
             490.00,307.00 466.00,307.00 466.00,307.00
             466.00,307.00 398.00,307.00 398.00,307.00
             387.36,307.13 385.02,309.62 385.00,320.00
             385.00,320.00 385.00,333.00 385.00,333.00
             380.18,333.00 364.63,333.44 361.00,332.35
             361.00,332.35 327.00,313.42 327.00,313.42
             322.91,311.07 309.98,304.42 308.02,300.90
             306.80,298.70 307.00,295.47 307.00,293.00
             307.00,293.00 307.00,273.00 307.00,273.00
             307.00,273.00 344.00,273.00 344.00,273.00
             347.50,272.98 351.78,272.99 354.77,270.91
             358.27,268.49 357.98,264.79 358.00,261.00
             358.00,261.00 358.00,218.00 358.00,218.00
             357.99,214.00 358.42,209.51 354.77,206.85
             351.40,204.40 344.14,205.00 340.00,205.00
             340.00,205.00 307.00,205.00 307.00,205.00
             307.00,205.00 307.00,170.00 307.00,170.00
             318.94,170.00 332.49,171.58 343.00,164.87
             363.02,152.10 363.05,122.38 344.00,108.79
             334.26,101.84 326.15,103.00 315.00,103.00
             315.00,103.00 274.00,103.00 274.00,103.00
             255.26,103.03 240.22,115.66 240.00,135.00
             239.90,144.04 241.34,150.83 247.33,158.00
             259.65,172.77 273.96,170.00 291.00,170.00 Z
           M 270.00,119.16
           C 270.00,119.16 313.00,119.16 313.00,119.16
             318.90,119.00 327.91,118.18 333.00,121.09
             344.20,127.49 345.12,142.73 334.98,150.58
             330.44,154.11 326.41,153.99 321.00,154.00
             321.00,154.00 284.00,154.00 284.00,154.00
             278.64,154.00 270.72,154.69 266.00,152.31
             251.00,144.78 253.20,123.52 270.00,119.16 Z
           M 95.00,137.00
           C 95.00,137.00 95.00,153.00 95.00,153.00
             95.00,153.00 162.00,153.00 162.00,153.00
             162.00,153.00 162.00,137.00 162.00,137.00
             162.00,137.00 95.00,137.00 95.00,137.00 Z
           M 197.00,221.00
           C 197.00,221.00 197.00,256.00 197.00,256.00
             185.61,256.00 173.11,255.26 162.00,257.67
             150.38,260.19 145.92,265.69 133.00,265.99
             127.60,266.11 115.05,264.81 112.02,259.78
             110.80,257.74 111.00,254.34 111.00,252.00
             111.00,252.00 111.00,221.00 111.00,221.00
             111.00,221.00 197.00,221.00 197.00,221.00 Z
           M 342.00,221.00
           C 342.00,221.00 342.00,256.00 342.00,256.00
             342.00,256.00 256.00,256.00 256.00,256.00
             256.00,256.00 256.00,221.00 256.00,221.00
             256.00,221.00 342.00,221.00 342.00,221.00 Z
           M 342.00,341.00
           C 342.00,341.00 312.00,358.85 312.00,358.85
             312.00,358.85 299.00,365.17 299.00,365.17
             299.00,365.17 286.00,358.85 286.00,358.85
             286.00,358.85 256.00,341.00 256.00,341.00
             256.00,341.00 286.00,323.58 286.00,323.58
             286.00,323.58 299.00,317.54 299.00,317.54
             299.00,317.54 312.00,323.58 312.00,323.58
             312.00,323.58 342.00,341.00 342.00,341.00 Z
           M 487.00,324.00
           C 487.00,324.00 487.00,359.00 487.00,359.00
             487.00,359.00 401.00,359.00 401.00,359.00
             401.00,359.00 401.00,324.00 401.00,324.00
             401.00,324.00 487.00,324.00 487.00,324.00 Z
           M 385.00,349.00
           C 385.00,353.98 384.05,367.12 386.74,370.79
             389.49,374.54 393.75,374.94 398.00,375.00
             398.00,375.00 436.00,375.00 436.00,375.00
             436.00,375.00 436.00,393.00 436.00,393.00
             436.00,393.00 307.00,393.00 307.00,393.00
             307.00,393.00 308.02,380.33 308.02,380.33
             308.02,380.33 316.00,374.70 316.00,374.70
             316.00,374.70 330.00,366.72 330.00,366.72
             330.00,366.72 361.00,349.64 361.00,349.64
             361.00,349.64 385.00,349.00 385.00,349.00 Z
           M 271.00,443.16
           C 271.00,443.16 313.00,443.16 313.00,443.16
             319.16,443.00 327.61,442.05 333.00,445.23
             343.99,451.71 345.18,466.68 334.98,474.58
             330.44,478.11 326.41,477.99 321.00,478.00
             321.00,478.00 284.00,478.00 284.00,478.00
             278.80,478.00 270.58,478.62 266.00,476.43
             252.13,469.81 251.70,447.96 271.00,443.16 Z
           M 385.00,495.00
           C 385.00,495.00 385.00,511.00 385.00,511.00
             385.00,511.00 401.00,511.00 401.00,511.00
             401.00,511.00 401.00,495.00 401.00,495.00
             401.00,495.00 385.00,495.00 385.00,495.00 Z
           M 419.00,495.00
           C 419.00,495.00 419.00,511.00 419.00,511.00
             419.00,511.00 435.00,511.00 435.00,511.00
             435.00,511.00 435.00,495.00 435.00,495.00
             435.00,495.00 419.00,495.00 419.00,495.00 Z
           M 453.00,495.00
           C 453.00,495.00 453.00,511.00 453.00,511.00
             453.00,511.00 469.00,511.00 469.00,511.00
             469.00,511.00 469.00,495.00 469.00,495.00
             469.00,495.00 453.00,495.00 453.00,495.00 Z
           M 487.00,495.00
           C 487.00,495.00 487.00,511.00 487.00,511.00
             487.00,511.00 503.00,511.00 503.00,511.00
             503.00,511.00 503.00,495.00 503.00,495.00
             503.00,495.00 487.00,495.00 487.00,495.00 Z" />
</svg>
