<?xml version="1.0" encoding="UTF-8" standalone="no"?>
<!DOCTYPE svg PUBLIC "-//W3C//DTD SVG 20010904//EN"
              "http://www.w3.org/TR/2001/REC-SVG-20010904/DTD/svg10.dtd">

<svg xmlns="http://www.w3.org/2000/svg"
     width="2in" height="2in"
     viewBox="0 0 600 600">
  <path id="Selection"
        fill="#8E96A9" stroke="black" stroke-width="1"
        d="M 106.00,96.00
           C 97.10,96.00 86.58,95.88 78.00,98.44
             74.36,99.52 70.23,101.47 67.00,103.47
             45.23,116.89 46.00,138.69 46.00,161.00
             46.00,161.00 46.00,194.00 46.00,194.00
             46.00,194.00 46.00,496.00 46.00,496.00
             46.01,501.51 46.89,510.80 48.44,516.00
             49.61,519.94 51.85,524.57 54.10,528.00
             70.10,552.35 100.85,548.00 126.00,548.00
             126.00,548.00 153.00,548.00 153.00,548.00
             153.00,548.00 506.00,548.00 506.00,548.00
             528.32,547.97 547.79,539.79 555.25,517.00
             557.06,511.48 557.99,501.88 558.00,496.00
             558.00,496.00 558.00,297.00 558.00,297.00
             558.00,297.00 558.00,175.00 558.00,175.00
             558.00,156.10 560.59,132.27 549.90,116.00
             537.36,96.91 518.46,96.00 498.00,96.00
             498.00,82.05 498.14,69.34 490.53,57.00
             474.83,31.53 436.71,29.70 418.24,53.04
             407.89,66.12 408.00,80.24 408.00,96.00
             408.00,96.00 348.00,96.00 348.00,96.00
             348.00,80.24 348.11,66.12 337.76,53.04
             319.29,29.70 281.17,31.53 265.47,57.00
             257.86,69.34 258.00,82.05 258.00,96.00
             258.00,96.00 196.00,96.00 196.00,96.00
             196.00,82.05 196.14,69.34 188.53,57.00
             172.83,31.53 134.71,29.70 116.24,53.04
             105.89,66.12 106.00,80.24 106.00,96.00 Z
           M 147.00,66.39
           C 160.36,64.58 165.98,71.19 166.00,84.00
             166.00,84.00 166.00,140.00 166.00,140.00
             165.77,157.18 148.23,159.80 140.21,151.79
             135.92,147.50 136.01,143.60 136.00,138.00
             136.00,138.00 136.00,82.00 136.00,82.00
             136.11,73.81 138.94,68.99 147.00,66.39 Z
           M 299.00,66.39
           C 312.36,64.58 317.98,71.19 318.00,84.00
             318.00,84.00 318.00,140.00 318.00,140.00
             317.77,157.18 300.23,159.80 292.21,151.79
             287.92,147.50 288.01,143.60 288.00,138.00
             288.00,138.00 288.00,82.00 288.00,82.00
             288.11,73.81 290.94,68.99 299.00,66.39 Z
           M 449.00,66.39
           C 462.36,64.58 467.98,71.19 468.00,84.00
             468.00,84.00 468.00,140.00 468.00,140.00
             467.77,157.18 450.23,159.80 442.21,151.79
             437.92,147.50 438.01,143.60 438.00,138.00
             438.00,138.00 438.00,82.00 438.00,82.00
             438.11,73.81 440.94,68.99 449.00,66.39 Z
           M 106.00,126.00
           C 106.00,138.72 105.99,150.52 112.31,162.00
             127.15,188.96 163.97,193.42 184.19,169.91
             195.77,156.45 196.00,142.73 196.00,126.00
             196.00,126.00 258.00,126.00 258.00,126.00
             258.00,138.72 257.99,150.52 264.31,162.00
             279.15,188.96 315.97,193.42 336.19,169.91
             347.77,156.45 348.00,142.73 348.00,126.00
             348.00,126.00 408.00,126.00 408.00,126.00
             408.00,142.73 408.23,156.45 419.81,169.91
             440.03,193.42 476.85,188.96 491.69,162.00
             498.01,150.52 498.00,138.72 498.00,126.00
             505.98,126.00 517.79,124.21 523.79,130.21
             529.72,136.14 528.00,147.16 528.00,155.00
             528.00,155.00 528.00,218.00 528.00,218.00
             528.00,218.00 76.00,218.00 76.00,218.00
             76.00,218.00 76.00,155.00 76.00,155.00
             76.00,147.16 74.28,136.14 80.21,130.21
             86.21,124.21 98.02,126.00 106.00,126.00 Z
           M 528.00,248.00
           C 528.00,248.00 528.00,500.00 528.00,500.00
             527.98,512.95 522.95,517.98 510.00,518.00
             510.00,518.00 427.00,518.00 427.00,518.00
             427.00,518.00 94.00,518.00 94.00,518.00
             86.77,517.99 81.14,517.28 77.45,510.00
             75.33,505.80 76.00,496.91 76.00,492.00
             76.00,492.00 76.00,455.00 76.00,455.00
             76.00,455.00 76.00,248.00 76.00,248.00
             76.00,248.00 528.00,248.00 528.00,248.00 Z
           M 120.00,278.09
           C 115.77,279.48 112.44,280.46 109.65,284.10
             106.66,288.00 106.06,293.25 106.00,298.00
             106.00,298.00 106.00,324.00 106.00,324.00
             106.00,324.00 106.00,466.00 106.00,466.00
             106.01,473.04 106.46,480.76 113.04,485.00
             119.28,489.02 130.64,488.00 138.00,488.00
             138.00,488.00 192.00,488.00 192.00,488.00
             192.00,488.00 476.00,488.00 476.00,488.00
             480.78,487.99 485.65,487.90 489.98,485.56
             499.23,480.57 498.00,468.89 498.00,460.00
             498.00,460.00 498.00,443.00 498.00,443.00
             498.00,443.00 498.00,300.00 498.00,300.00
             497.99,292.96 497.54,285.24 490.96,281.00
             484.72,276.98 473.36,278.00 466.00,278.09
             466.00,278.09 411.00,278.09 411.00,278.09
             411.00,278.09 217.00,278.09 217.00,278.09
             217.00,278.09 154.00,278.09 154.00,278.09
             154.00,278.09 120.00,278.09 120.00,278.09 Z
           M 196.00,308.00
           C 196.00,308.00 196.00,368.00 196.00,368.00
             196.00,368.00 136.00,368.00 136.00,368.00
             136.00,368.00 136.00,308.00 136.00,308.00
             136.00,308.00 196.00,308.00 196.00,308.00 Z
           M 288.00,308.00
           C 288.00,308.00 288.00,368.00 288.00,368.00
             288.00,368.00 226.00,368.00 226.00,368.00
             226.00,368.00 226.00,308.00 226.00,308.00
             226.00,308.00 288.00,308.00 288.00,308.00 Z
           M 378.00,308.00
           C 378.00,308.00 378.00,368.00 378.00,368.00
             378.00,368.00 318.00,368.00 318.00,368.00
             318.00,368.00 318.00,308.00 318.00,308.00
             318.00,308.00 378.00,308.00 378.00,308.00 Z
           M 468.00,308.00
           C 468.00,308.00 468.00,368.00 468.00,368.00
             468.00,368.00 408.00,368.00 408.00,368.00
             408.00,368.00 408.00,308.00 408.00,308.00
             408.00,308.00 468.00,308.00 468.00,308.00 Z
           M 196.00,398.00
           C 196.00,398.00 196.00,458.00 196.00,458.00
             196.00,458.00 136.00,458.00 136.00,458.00
             136.00,458.00 136.00,398.00 136.00,398.00
             136.00,398.00 196.00,398.00 196.00,398.00 Z
           M 288.00,398.00
           C 288.00,398.00 288.00,458.00 288.00,458.00
             288.00,458.00 226.00,458.00 226.00,458.00
             226.00,458.00 226.00,398.00 226.00,398.00
             226.00,398.00 288.00,398.00 288.00,398.00 Z
           M 378.00,398.00
           C 378.00,398.00 378.00,458.00 378.00,458.00
             378.00,458.00 318.00,458.00 318.00,458.00
             318.00,458.00 318.00,398.00 318.00,398.00
             318.00,398.00 378.00,398.00 378.00,398.00 Z
           M 468.00,398.00
           C 468.00,398.00 468.00,458.00 468.00,458.00
             468.00,458.00 408.00,458.00 408.00,458.00
             408.00,458.00 408.00,398.00 408.00,398.00
             408.00,398.00 468.00,398.00 468.00,398.00 Z" />
</svg>
