<?xml version="1.0" encoding="UTF-8" standalone="no"?>
<!DOCTYPE svg PUBLIC "-//W3C//DTD SVG 20010904//EN"
              "http://www.w3.org/TR/2001/REC-SVG-20010904/DTD/svg10.dtd">

<svg xmlns="http://www.w3.org/2000/svg"
     width="2in" height="2in"
     viewBox="0 0 600 600">
  <path id="Selection"
        fill="#8E96A9" stroke="black" stroke-width="1"
        d="M 205.00,100.00
           C 205.00,100.00 163.00,100.00 163.00,100.00
             155.39,100.01 146.09,101.11 139.00,103.92
             118.54,112.05 109.25,130.92 109.00,152.00
             109.00,152.00 109.00,274.00 109.00,274.00
             109.00,274.00 109.00,494.00 109.00,494.00
             109.01,501.33 110.03,510.10 112.54,517.00
             120.66,539.28 140.75,547.97 163.00,548.00
             163.00,548.00 302.00,548.00 302.00,548.00
             302.00,548.00 439.00,548.00 439.00,548.00
             444.65,547.99 452.60,547.24 458.00,545.70
             463.01,544.28 466.60,542.74 471.00,539.91
             495.54,524.17 493.00,499.28 493.00,474.00
             493.00,474.00 493.00,418.00 493.00,418.00
             493.00,418.00 493.00,241.00 493.00,241.00
             493.00,241.00 493.00,152.00 493.00,152.00
             492.63,120.43 472.57,100.37 441.00,100.00
             441.00,100.00 397.00,100.00 397.00,100.00
             397.00,93.98 397.57,83.33 395.30,78.00
             390.75,67.31 379.64,68.00 370.00,68.00
             370.00,68.00 355.00,68.00 355.00,68.00
             352.62,68.00 349.29,68.20 347.21,66.98
             343.58,64.84 341.38,56.19 333.91,49.30
             321.85,38.16 305.85,34.26 290.00,37.67
             281.47,39.50 271.13,45.44 265.46,52.04
             262.45,55.55 257.11,65.61 254.79,66.98
             252.71,68.20 249.38,68.00 247.00,68.00
             247.00,68.00 228.00,68.00 228.00,68.00
             219.43,68.01 210.55,68.96 206.70,78.00
             204.43,83.33 205.00,93.98 205.00,100.00 Z
           M 365.00,100.00
           C 365.00,100.00 365.00,132.00 365.00,132.00
             365.00,132.00 237.00,132.00 237.00,132.00
             237.00,132.00 237.00,100.00 237.00,100.00
             237.00,100.00 261.00,100.00 261.00,100.00
             266.38,99.99 272.50,99.91 277.00,96.57
             279.50,94.71 282.07,91.89 283.30,89.00
             283.30,89.00 285.89,78.00 285.89,78.00
             288.43,71.53 294.23,68.03 301.00,68.03
             307.77,68.03 313.57,71.53 316.11,78.00
             316.11,78.00 318.70,89.00 318.70,89.00
             319.93,91.89 322.50,94.71 325.00,96.57
             328.96,99.50 334.23,99.94 339.00,100.00
             339.00,100.00 365.00,100.00 365.00,100.00 Z
           M 205.00,132.00
           C 205.00,132.00 205.00,141.00 205.00,141.00
             205.02,144.57 205.18,148.60 206.34,152.00
             207.78,156.23 211.89,160.55 216.00,162.30
             222.15,164.92 243.23,164.00 251.00,164.00
             251.00,164.00 373.00,164.00 373.00,164.00
             376.77,163.99 380.33,163.96 384.00,162.94
             398.49,158.93 397.00,143.72 397.00,132.00
             397.00,132.00 442.00,132.00 442.00,132.00
             455.66,132.02 460.98,137.34 461.00,151.00
             461.00,151.00 461.00,217.00 461.00,217.00
             461.00,217.00 461.00,497.00 461.00,497.00
             460.98,508.75 456.71,515.84 444.00,516.00
             444.00,516.00 391.00,516.00 391.00,516.00
             391.00,516.00 160.00,516.00 160.00,516.00
             146.34,515.98 141.02,510.66 141.00,497.00
             141.00,497.00 141.00,408.00 141.00,408.00
             141.00,408.00 141.00,151.00 141.00,151.00
             141.01,143.22 142.18,137.12 150.00,133.31
             153.92,131.41 163.34,132.00 168.00,132.00
             168.00,132.00 205.00,132.00 205.00,132.00 Z
           M 204.00,228.15
           C 187.94,231.59 186.23,246.77 193.53,254.67
             198.21,259.74 204.61,259.99 211.00,260.00
             211.00,260.00 391.00,260.00 391.00,260.00
             396.62,259.99 402.17,259.88 406.82,256.20
             415.22,249.55 413.93,236.44 405.00,230.73
             400.90,228.12 394.73,228.01 390.00,228.15
             390.00,228.15 268.00,228.15 268.00,228.15
             268.00,228.15 204.00,228.15 204.00,228.15 Z
           M 204.00,324.15
           C 187.94,327.59 186.23,342.77 193.53,350.67
             198.21,355.74 204.61,355.99 211.00,356.00
             211.00,356.00 391.00,356.00 391.00,356.00
             396.62,355.99 402.17,355.88 406.82,352.20
             415.22,345.55 413.93,332.44 405.00,326.73
             400.90,324.12 394.73,324.01 390.00,324.15
             390.00,324.15 268.00,324.15 268.00,324.15
             268.00,324.15 204.00,324.15 204.00,324.15 Z
           M 204.00,420.15
           C 187.27,423.72 186.08,439.85 194.33,447.47
             199.00,451.79 205.99,451.99 212.00,452.00
             212.00,452.00 390.00,452.00 390.00,452.00
             395.17,451.99 401.46,451.83 405.95,448.86
             414.85,442.88 414.37,429.76 405.95,423.43
             401.57,420.10 395.30,420.01 390.00,420.15
             390.00,420.15 268.00,420.15 268.00,420.15
             268.00,420.15 204.00,420.15 204.00,420.15 Z" />
</svg>
