<?xml version="1.0" encoding="UTF-8" standalone="no"?>
<!DOCTYPE svg PUBLIC "-//W3C//DTD SVG 20010904//EN"
              "http://www.w3.org/TR/2001/REC-SVG-20010904/DTD/svg10.dtd">

<svg xmlns="http://www.w3.org/2000/svg"
     width="2in" height="2in"
     viewBox="0 0 600 600">
  <path id="Selection"
        fill="#8E96A9" stroke="black" stroke-width="1"
        d="M 117.00,332.00
           C 117.00,332.00 117.00,496.00 117.00,496.00
             117.02,509.76 122.69,516.93 137.00,517.00
             137.00,517.00 252.00,517.00 252.00,517.00
             265.71,516.98 273.82,511.58 274.00,497.00
             274.00,497.00 274.00,377.00 274.00,377.00
             274.00,377.00 349.00,377.00 349.00,377.00
             349.00,377.00 349.00,495.00 349.00,495.00
             349.02,510.53 355.42,516.98 371.00,517.00
             371.00,517.00 479.00,517.00 479.00,517.00
             482.00,517.00 485.12,517.12 488.00,516.15
             500.46,511.93 500.00,501.73 500.00,491.00
             500.00,491.00 500.00,474.00 500.00,474.00
             500.00,474.00 500.00,332.00 500.00,332.00
             500.00,332.00 547.00,332.00 547.00,332.00
             551.08,331.99 554.10,332.12 558.00,330.52
             567.28,326.71 571.04,315.91 566.55,307.00
             564.59,303.12 560.09,299.19 557.04,296.00
             557.04,296.00 540.00,278.00 540.00,278.00
             540.00,278.00 490.01,228.00 490.01,228.00
             490.01,228.00 479.00,216.00 479.00,216.00
             479.00,216.00 424.01,161.00 424.01,161.00
             424.01,161.00 414.96,151.00 414.96,151.00
             414.96,151.00 394.00,130.00 394.00,130.00
             394.00,130.00 357.01,93.00 357.01,93.00
             357.01,93.00 344.00,79.00 344.00,79.00
             337.79,72.78 329.11,62.11 320.00,61.20
             309.74,60.17 301.52,69.48 295.00,76.00
             295.00,76.00 246.00,124.00 246.00,124.00
             246.00,124.00 234.00,135.04 234.00,135.04
             234.00,135.04 208.00,160.96 208.00,160.96
             208.00,160.96 199.00,169.04 199.00,169.04
             199.00,169.04 174.00,193.96 174.00,193.96
             174.00,193.96 165.00,202.04 165.00,202.04
             165.00,202.04 140.00,226.99 140.00,226.99
             140.00,226.99 130.00,236.04 130.00,236.04
             130.00,236.04 105.00,260.99 105.00,260.99
             105.00,260.99 90.00,275.00 90.00,275.00
             90.00,275.00 70.00,294.99 70.00,294.99
             65.91,298.99 61.97,301.68 59.40,307.00
             55.06,315.99 58.38,327.08 68.00,330.85
             71.24,332.12 74.59,331.99 78.00,332.00
             78.00,332.00 117.00,332.00 117.00,332.00 Z
           M 318.00,103.00
           C 318.00,103.00 366.99,152.00 366.99,152.00
             366.99,152.00 384.00,170.00 384.00,170.00
             384.00,170.00 460.09,247.00 460.09,247.00
             460.09,247.00 509.00,297.00 509.00,297.00
             509.00,297.00 489.00,297.00 489.00,297.00
             470.67,297.03 465.03,305.64 465.00,323.00
             465.00,323.00 465.00,482.00 465.00,482.00
             465.00,482.00 384.00,482.00 384.00,482.00
             384.00,482.00 384.00,364.00 384.00,364.00
             383.97,348.52 376.03,342.02 361.00,342.00
             361.00,342.00 261.00,342.00 261.00,342.00
             247.29,342.02 239.17,348.86 239.00,363.00
             239.00,363.00 239.00,482.00 239.00,482.00
             239.00,482.00 152.00,482.00 152.00,482.00
             152.00,482.00 152.00,321.00 152.00,321.00
             152.00,317.80 152.10,315.13 151.21,312.00
             146.40,295.07 131.91,297.00 118.00,297.00
             118.00,297.00 131.00,284.00 131.00,284.00
             131.00,284.00 159.00,256.91 159.00,256.91
             159.00,256.91 183.00,233.01 183.00,233.01
             183.00,233.01 193.00,223.96 193.00,223.96
             193.00,223.96 217.00,200.04 217.00,200.04
             217.00,200.04 226.00,191.96 226.00,191.96
             226.00,191.96 250.00,168.01 250.00,168.01
             250.00,168.01 260.00,158.96 260.00,158.96
             260.00,158.96 292.00,127.91 292.00,127.91
             292.00,127.91 318.00,103.00 318.00,103.00 Z" />
</svg>
