<?xml version="1.0" encoding="UTF-8" standalone="no"?>
<!DOCTYPE svg PUBLIC "-//W3C//DTD SVG 20010904//EN"
              "http://www.w3.org/TR/2001/REC-SVG-20010904/DTD/svg10.dtd">

<svg xmlns="http://www.w3.org/2000/svg"
     width="2in" height="2in"
     viewBox="0 0 600 600">
  <path id="Selection"
        fill="#8E96A9" stroke="black" stroke-width="1"
        d="M 302.00,18.43
           C 302.00,18.43 277.00,20.44 277.00,20.44
             257.47,23.52 239.61,29.93 222.00,38.75
             203.10,48.23 186.23,61.43 172.00,77.00
             159.53,90.65 151.41,103.56 143.25,120.00
             120.09,166.63 120.09,222.46 140.43,270.00
             147.96,287.62 158.80,303.82 168.95,320.00
             168.95,320.00 206.81,381.00 206.81,381.00
             206.81,381.00 277.58,495.00 277.58,495.00
             277.58,495.00 291.32,517.00 291.32,517.00
             295.75,524.00 299.58,530.01 309.00,529.21
             311.83,528.97 314.57,527.99 316.79,526.20
             320.44,523.26 331.04,504.27 334.20,499.00
             334.20,499.00 391.80,403.00 391.80,403.00
             391.80,403.00 443.20,317.00 443.20,317.00
             464.51,281.48 478.08,261.43 483.15,219.00
             483.15,219.00 484.68,196.00 484.68,196.00
             482.95,172.92 482.32,160.48 474.31,138.00
             454.27,81.73 408.13,38.72 350.00,24.13
             340.47,21.73 330.82,19.76 321.00,19.00
             321.00,19.00 312.00,19.00 312.00,19.00
             307.28,18.59 307.27,17.90 302.00,18.43 Z
           M 307.00,487.00
           C 307.00,487.00 271.58,430.00 271.58,430.00
             271.58,430.00 212.58,335.00 212.58,335.00
             212.58,335.00 182.80,287.00 182.80,287.00
             173.95,272.43 165.14,257.53 160.43,241.00
             137.66,161.22 181.61,77.48 262.00,53.44
             282.98,47.16 305.43,46.04 327.00,49.00
             344.76,51.43 362.32,57.46 378.00,66.17
             393.83,74.96 409.81,87.93 421.20,102.00
             430.21,113.14 438.72,126.61 443.94,140.00
             456.98,173.43 459.40,210.60 448.26,245.00
             441.53,265.76 428.66,284.35 417.60,303.00
             417.60,303.00 366.20,389.00 366.20,389.00
             366.20,389.00 327.40,454.00 327.40,454.00
             327.40,454.00 307.00,487.00 307.00,487.00 Z
           M 304.00,108.59
           C 294.29,109.38 289.89,109.08 280.00,111.91
             254.87,119.10 234.11,137.24 223.31,161.00
             196.73,219.49 240.56,289.80 306.00,287.41
             321.57,286.84 331.86,284.82 346.00,277.75
             356.73,272.39 365.89,265.29 373.54,256.00
             411.06,210.41 396.47,141.06 342.00,116.31
             329.89,110.81 317.21,108.70 304.00,108.59 Z
           M 302.00,137.29
           C 306.93,136.87 307.35,137.29 312.00,137.85
             335.94,140.72 354.94,155.90 362.48,179.00
             365.19,187.29 365.01,192.55 365.00,201.00
             364.97,222.93 350.95,243.94 331.00,253.10
             323.44,256.57 316.15,257.78 308.00,258.71
             302.56,259.33 292.30,257.62 287.00,255.98
             255.76,246.31 237.53,213.56 246.43,182.00
             252.52,160.38 268.26,144.86 290.00,139.16
             290.00,139.16 302.00,137.29 302.00,137.29 Z" />
</svg>
