<?xml version="1.0" encoding="UTF-8" standalone="no"?>
<!DOCTYPE svg PUBLIC "-//W3C//DTD SVG 20010904//EN"
              "http://www.w3.org/TR/2001/REC-SVG-20010904/DTD/svg10.dtd">

<svg xmlns="http://www.w3.org/2000/svg"
     width="2in" height="2in"
     viewBox="0 0 600 600">
  <path id="Selection"
        fill="#8E96A9" stroke="black" stroke-width="1"
        d="M 198.00,69.00
           C 198.00,69.00 198.00,249.00 198.00,249.00
             198.00,249.00 408.00,249.00 408.00,249.00
             408.00,249.00 408.00,69.00 408.00,69.00
             408.00,69.00 198.00,69.00 198.00,69.00 Z
           M 378.00,99.00
           C 378.00,99.00 378.00,129.00 378.00,129.00
             378.00,129.00 228.00,129.00 228.00,129.00
             228.00,129.00 228.00,99.00 228.00,99.00
             228.00,99.00 378.00,99.00 378.00,99.00 Z
           M 378.00,159.00
           C 378.00,159.00 378.00,219.00 378.00,219.00
             378.00,219.00 228.00,219.00 228.00,219.00
             228.00,219.00 228.00,159.00 228.00,159.00
             228.00,159.00 378.00,159.00 378.00,159.00 Z
           M 288.00,279.00
           C 288.00,279.00 288.00,310.00 288.00,310.00
             288.00,310.00 137.00,310.00 137.00,310.00
             137.00,310.00 137.00,371.00 137.00,371.00
             137.00,371.00 167.00,371.00 167.00,371.00
             167.00,371.00 167.00,340.00 167.00,340.00
             167.00,340.00 439.00,340.00 439.00,340.00
             439.00,340.00 439.00,371.00 439.00,371.00
             439.00,371.00 469.00,371.00 469.00,371.00
             469.00,371.00 469.00,310.00 469.00,310.00
             469.00,310.00 318.00,310.00 318.00,310.00
             318.00,310.00 318.00,279.00 318.00,279.00
             318.00,279.00 288.00,279.00 288.00,279.00 Z
           M 47.00,401.00
           C 47.00,401.00 47.00,581.00 47.00,581.00
             47.00,581.00 257.00,581.00 257.00,581.00
             257.00,581.00 257.00,401.00 257.00,401.00
             257.00,401.00 47.00,401.00 47.00,401.00 Z
           M 349.00,401.00
           C 349.00,401.00 349.00,581.00 349.00,581.00
             349.00,581.00 559.00,581.00 559.00,581.00
             559.00,581.00 559.00,401.00 559.00,401.00
             559.00,401.00 349.00,401.00 349.00,401.00 Z
           M 227.00,431.00
           C 227.00,431.00 227.00,461.00 227.00,461.00
             227.00,461.00 77.00,461.00 77.00,461.00
             77.00,461.00 77.00,431.00 77.00,431.00
             77.00,431.00 227.00,431.00 227.00,431.00 Z
           M 529.00,431.00
           C 529.00,431.00 529.00,461.00 529.00,461.00
             529.00,461.00 379.00,461.00 379.00,461.00
             379.00,461.00 379.00,431.00 379.00,431.00
             379.00,431.00 529.00,431.00 529.00,431.00 Z
           M 227.00,491.00
           C 227.00,491.00 227.00,551.00 227.00,551.00
             227.00,551.00 77.00,551.00 77.00,551.00
             77.00,551.00 77.00,491.00 77.00,491.00
             77.00,491.00 227.00,491.00 227.00,491.00 Z
           M 529.00,491.00
           C 529.00,491.00 529.00,551.00 529.00,551.00
             529.00,551.00 379.00,551.00 379.00,551.00
             379.00,551.00 379.00,491.00 379.00,491.00
             379.00,491.00 529.00,491.00 529.00,491.00 Z" />
</svg>
