<?xml version="1.0" encoding="UTF-8" standalone="no"?>
<!DOCTYPE svg PUBLIC "-//W3C//DTD SVG 20010904//EN"
              "http://www.w3.org/TR/2001/REC-SVG-20010904/DTD/svg10.dtd">

<svg xmlns="http://www.w3.org/2000/svg"
     width="2in" height="2in"
     viewBox="0 0 600 600">
  <path id="Selection"
        fill="#8E96A9" stroke="black" stroke-width="1"
        d="M 142.00,34.20
           C 136.61,35.24 133.12,35.49 128.00,37.91
             108.12,47.32 111.00,69.85 111.00,88.00
             111.00,88.00 111.00,147.00 111.00,147.00
             111.00,147.00 111.00,509.00 111.00,509.00
             111.01,513.93 111.37,519.24 112.78,524.00
             120.61,550.43 151.60,546.00 173.00,546.00
             173.00,546.00 190.00,546.00 190.00,546.00
             190.00,546.00 450.00,546.00 450.00,546.00
             457.29,545.99 466.48,545.02 473.00,541.60
             484.71,535.45 488.85,523.50 489.00,511.00
             489.00,511.00 489.00,451.00 489.00,451.00
             489.00,451.00 489.00,139.00 489.00,139.00
             488.98,127.38 482.59,124.06 475.09,116.00
             475.09,116.00 440.09,78.00 440.09,78.00
             440.09,78.00 412.58,48.00 412.58,48.00
             410.23,45.30 401.63,35.74 398.83,34.20
             397.05,33.87 393.95,34.00 392.00,34.20
             392.00,34.20 227.00,34.20 227.00,34.20
             227.00,34.20 172.00,34.20 172.00,34.20
             172.00,34.20 142.00,34.20 142.00,34.20 Z
           M 381.00,60.00
           C 381.00,60.00 381.00,131.00 381.00,131.00
             381.16,143.99 386.99,149.84 400.00,150.00
             400.00,150.00 463.00,150.00 463.00,150.00
             463.00,150.00 463.00,509.00 463.00,509.00
             462.98,518.68 461.68,519.98 452.00,520.00
             452.00,520.00 390.00,520.00 390.00,520.00
             390.00,520.00 148.00,520.00 148.00,520.00
             145.24,520.00 140.82,520.35 138.74,518.26
             136.94,516.46 137.04,513.36 137.00,511.00
             137.00,511.00 137.00,495.00 137.00,495.00
             137.00,495.00 137.00,415.00 137.00,415.00
             137.00,415.00 137.00,71.00 137.00,71.00
             137.01,67.88 136.53,63.17 139.43,61.17
             141.98,59.42 151.56,60.00 155.00,60.00
             155.00,60.00 194.00,60.00 194.00,60.00
             194.00,60.00 381.00,60.00 381.00,60.00 Z
           M 408.00,81.00
           C 408.00,81.00 447.00,124.00 447.00,124.00
             447.00,124.00 407.00,124.00 407.00,124.00
             407.00,124.00 407.00,96.00 407.00,96.00
             407.00,96.00 408.00,81.00 408.00,81.00 Z
           M 180.04,175.74
           C 171.67,180.57 172.79,190.29 182.00,193.20
             185.61,194.34 192.96,194.00 197.00,194.00
             197.00,194.00 223.00,194.00 223.00,194.00
             223.00,194.00 400.00,194.00 400.00,194.00
             404.37,193.99 410.06,194.09 413.61,191.12
             418.15,187.33 417.77,180.13 412.89,176.74
             410.00,174.73 406.34,175.01 403.00,175.00
             403.00,175.00 252.00,175.00 252.00,175.00
             252.00,175.00 205.00,175.00 205.00,175.00
             198.63,175.00 185.60,174.37 180.04,175.74 Z
           M 182.00,241.53
           C 177.91,242.88 175.38,244.35 174.62,249.00
             173.10,258.36 182.01,259.97 189.00,260.00
             189.00,260.00 226.00,260.00 226.00,260.00
             226.00,260.00 401.00,260.00 401.00,260.00
             407.30,259.99 415.19,259.90 416.57,252.00
             418.23,242.48 408.90,241.01 402.00,241.00
             402.00,241.00 363.00,241.00 363.00,241.00
             363.00,241.00 243.00,241.00 243.00,241.00
             243.00,241.00 204.00,241.00 204.00,241.00
             197.84,241.00 187.68,240.59 182.00,241.53 Z
           M 182.00,305.57
           C 175.19,308.27 171.25,315.71 177.42,321.35
             180.13,323.83 183.55,323.95 187.00,324.00
             187.00,324.00 222.00,324.00 222.00,324.00
             222.00,324.00 402.00,324.00 402.00,324.00
             405.54,323.99 409.82,324.23 412.83,322.15
             418.04,318.61 417.97,310.58 412.83,307.09
             409.46,304.84 404.84,305.01 401.00,305.00
             401.00,305.00 255.00,305.00 255.00,305.00
             255.00,305.00 208.00,305.00 208.00,305.00
             208.00,305.00 182.00,305.57 182.00,305.57 Z
           M 183.00,370.53
           C 174.59,373.26 170.94,381.59 178.21,387.30
             181.83,390.14 186.65,389.99 191.00,390.00
             191.00,390.00 400.00,390.00 400.00,390.00
             404.35,389.99 408.98,390.04 412.84,387.59
             418.25,384.06 418.01,376.51 412.84,372.70
             409.11,369.88 404.47,370.01 400.00,370.00
             400.00,370.00 256.00,370.00 256.00,370.00
             256.00,370.00 209.00,370.00 209.00,370.00
             209.00,370.00 183.00,370.53 183.00,370.53 Z" />
</svg>
