<?xml version="1.0" encoding="UTF-8" standalone="no"?>
<!DOCTYPE svg PUBLIC "-//W3C//DTD SVG 20010904//EN"
              "http://www.w3.org/TR/2001/REC-SVG-20010904/DTD/svg10.dtd">

<svg xmlns="http://www.w3.org/2000/svg"
     width="2in" height="2in"
     viewBox="0 0 600 600">
  <path id="Selection"
        fill="#8E96A9" stroke="black" stroke-width="1"
        d="M 367.00,222.00
           C 356.31,212.99 339.08,206.07 325.00,206.00
             325.00,206.00 316.00,206.00 316.00,206.00
             306.73,206.11 296.34,209.36 288.00,213.32
             284.85,214.82 277.88,220.08 275.00,219.47
             272.69,218.98 269.68,215.66 268.00,214.00
             268.00,214.00 256.00,202.00 256.00,202.00
             256.00,202.00 224.00,170.00 224.00,170.00
             224.00,170.00 206.52,151.00 206.52,151.00
             203.98,146.81 208.58,138.26 208.91,133.00
             209.93,116.30 199.51,101.65 184.00,96.09
             151.17,84.31 120.57,122.32 142.78,153.00
             149.57,162.37 159.72,166.76 171.00,167.49
             174.75,167.73 180.44,166.69 184.00,165.45
             187.08,164.39 189.22,162.41 192.28,164.50
             192.28,164.50 209.00,181.00 209.00,181.00
             209.00,181.00 243.00,215.00 243.00,215.00
             248.55,220.55 256.99,229.70 263.00,234.00
             248.90,250.73 243.73,275.84 248.90,297.00
             250.43,303.29 254.12,312.48 257.46,318.00
             258.81,320.22 262.15,323.75 261.00,326.42
             260.31,328.02 253.64,334.36 252.00,336.00
             252.00,336.00 230.00,358.00 230.00,358.00
             230.00,358.00 174.00,414.00 174.00,414.00
             167.25,420.75 149.68,437.46 145.00,444.00
             125.52,427.53 100.25,423.69 78.00,437.20
             71.07,441.41 64.76,447.06 60.47,454.00
             54.60,463.47 52.22,471.99 51.51,483.00
             51.16,488.45 52.62,496.79 54.35,502.00
             66.94,539.80 112.88,551.97 143.00,526.56
             155.58,515.95 161.98,501.34 162.00,485.00
             162.01,478.88 161.75,473.89 159.77,468.00
             158.67,464.73 156.17,460.35 157.81,457.00
             158.90,454.76 164.93,449.07 167.00,447.00
             167.00,447.00 185.00,429.00 185.00,429.00
             185.00,429.00 246.00,368.00 246.00,368.00
             246.00,368.00 267.00,347.00 267.00,347.00
             268.68,345.32 273.46,340.06 275.58,339.64
             277.76,339.21 285.57,344.83 288.00,346.11
             294.56,349.56 304.63,352.01 312.00,353.00
             312.00,353.00 312.00,449.00 312.00,449.00
             281.35,451.57 261.20,484.03 266.46,513.00
             271.25,539.36 294.12,558.66 321.00,558.66
             342.04,558.66 362.29,546.18 371.10,527.00
             375.85,516.67 376.13,510.03 376.00,499.00
             375.71,475.00 354.05,451.02 330.00,449.00
             330.00,449.00 330.00,353.00 330.00,353.00
             337.37,352.01 347.44,349.56 354.00,346.11
             356.54,344.77 364.20,339.23 366.58,339.69
             368.33,340.03 370.75,342.76 372.01,344.01
             372.01,344.01 384.00,356.00 384.00,356.00
             384.00,356.00 420.00,392.00 420.00,392.00
             422.85,394.85 434.96,406.45 436.19,409.00
             437.75,412.24 433.38,421.31 433.09,426.00
             431.14,457.72 466.49,476.56 492.00,458.21
             496.38,455.06 499.09,451.63 501.77,447.00
             504.76,441.81 506.38,435.98 506.82,430.00
             508.29,409.66 490.79,392.47 471.00,392.01
             454.05,391.62 454.82,399.67 447.00,392.90
             447.00,392.90 398.00,344.00 398.00,344.00
             398.00,344.00 385.01,331.00 385.01,331.00
             383.77,329.74 380.97,327.18 380.67,325.42
             380.34,323.56 386.48,314.54 387.68,312.00
             392.15,302.57 394.95,291.46 395.00,281.00
             395.06,267.15 389.87,244.23 379.00,235.00
             379.00,235.00 443.00,171.00 443.00,171.00
             443.00,171.00 461.00,153.00 461.00,153.00
             462.73,151.27 466.81,146.82 469.00,146.18
             471.85,145.36 477.23,149.75 480.00,151.22
             487.86,155.39 495.02,157.89 504.00,158.00
             519.60,158.18 534.46,154.24 545.91,142.91
             571.89,117.22 566.73,71.78 534.00,54.32
             511.74,42.45 482.07,46.41 465.32,66.01
             455.12,77.96 451.82,90.70 452.00,106.00
             452.07,111.30 452.95,116.00 454.70,121.00
             456.01,124.76 458.04,127.23 455.58,131.00
             455.58,131.00 435.01,152.00 435.01,152.00
             435.01,152.00 425.96,162.00 425.96,162.00
             425.96,162.00 393.00,195.00 393.00,195.00
             386.60,201.40 371.58,215.60 367.00,222.00 Z
           M 505.00,65.30
           C 545.73,63.21 559.05,116.85 526.00,135.64
             518.93,139.66 512.87,140.09 505.00,140.00
             485.93,139.77 470.23,124.06 470.00,105.00
             469.92,97.43 470.22,91.92 473.82,85.00
             480.49,72.17 491.43,67.29 505.00,65.30 Z
           M 168.00,112.33
           C 174.29,111.63 179.75,112.10 184.70,116.53
             196.65,127.23 190.89,146.71 175.00,149.53
             152.16,153.58 142.90,118.51 168.00,112.33 Z
           M 320.00,223.37
           C 329.04,223.45 337.85,225.29 346.00,229.26
             353.07,232.70 357.55,236.20 362.91,242.00
             394.38,276.06 371.28,332.73 325.00,335.91
             294.36,338.02 265.37,314.44 265.00,283.00
             264.83,268.49 266.88,257.95 275.76,246.00
             287.77,229.85 301.02,225.44 320.00,223.37 Z
           M 466.00,410.33
           C 471.00,409.78 475.64,409.78 480.00,412.70
             494.52,422.44 490.34,444.38 473.00,447.53
             455.68,450.67 444.13,429.26 455.53,416.18
             458.51,412.77 461.73,411.38 466.00,410.33 Z
           M 101.00,447.30
           C 108.50,446.55 113.89,447.05 121.00,449.71
             134.24,454.67 143.83,467.88 144.00,482.00
             144.09,489.59 144.03,495.06 140.30,502.00
             132.98,515.62 120.23,522.34 105.00,521.99
             77.26,521.35 61.22,491.09 73.38,467.00
             78.87,456.12 89.29,449.51 101.00,447.30 Z
           M 314.00,466.30
           C 322.05,465.50 330.62,465.67 338.00,469.38
             357.76,479.29 364.71,505.69 352.40,524.00
             345.38,534.45 336.14,538.97 324.00,540.57
             320.01,541.09 317.89,540.60 314.00,539.92
             296.30,536.79 284.72,522.69 283.51,505.00
             282.62,491.88 288.75,480.41 299.00,472.53
             303.83,468.82 308.13,467.41 314.00,466.30 Z" />
</svg>
