<?xml version="1.0" encoding="UTF-8" standalone="no"?>
<!DOCTYPE svg PUBLIC "-//W3C//DTD SVG 20010904//EN"
              "http://www.w3.org/TR/2001/REC-SVG-20010904/DTD/svg10.dtd">

<svg xmlns="http://www.w3.org/2000/svg"
     width="2in" height="2in"
     viewBox="0 0 600 600">
  <path id="Selection"
        fill="#8E96A9" stroke="black" stroke-width="1"
        d="M 209.00,128.00
           C 209.00,128.00 80.00,128.00 80.00,128.00
             73.42,128.01 66.04,128.38 61.65,134.10
             57.09,140.04 58.00,149.86 58.00,157.00
             58.00,157.00 58.00,206.00 58.00,206.00
             58.00,206.00 58.00,466.00 58.00,466.00
             58.01,471.51 58.89,480.80 60.44,486.00
             61.61,489.94 63.85,494.57 66.10,498.00
             82.10,522.35 112.85,518.00 138.00,518.00
             138.00,518.00 165.00,518.00 165.00,518.00
             165.00,518.00 518.00,518.00 518.00,518.00
             524.29,517.99 534.13,517.01 540.00,514.91
             560.99,507.38 569.75,489.18 570.00,468.00
             570.00,468.00 570.00,355.00 570.00,355.00
             570.00,355.00 570.00,151.00 570.00,151.00
             569.99,145.10 569.64,137.09 565.36,132.53
             559.45,126.23 539.59,128.00 531.00,128.00
             531.00,128.00 419.00,128.00 419.00,128.00
             419.00,108.80 418.52,91.34 401.96,78.24
             397.25,74.51 390.85,71.32 385.00,69.90
             372.84,66.94 343.86,68.00 330.00,68.00
             330.00,68.00 277.00,68.00 277.00,68.00
             254.72,68.00 232.31,66.23 217.77,87.00
             215.66,90.02 213.34,94.52 212.09,98.00
             208.89,106.93 209.00,118.59 209.00,128.00 Z
           M 389.00,128.00
           C 389.00,128.00 239.00,128.00 239.00,128.00
             239.00,128.00 239.00,116.00 239.00,116.00
             239.00,112.98 238.85,109.85 240.01,107.00
             241.59,103.12 244.99,99.91 249.00,98.65
             249.00,98.65 281.00,98.00 281.00,98.00
             281.00,98.00 373.00,98.00 373.00,98.00
             392.07,98.26 389.00,114.55 389.00,128.00 Z
           M 535.00,158.00
           C 535.00,158.00 496.33,273.00 496.33,273.00
             496.33,273.00 489.33,294.00 489.33,294.00
             487.74,298.73 486.45,303.16 481.96,305.99
             478.44,308.21 474.96,307.99 471.00,308.00
             471.00,308.00 389.00,308.00 389.00,308.00
             389.00,308.00 389.00,299.00 389.00,299.00
             388.81,282.93 381.10,278.02 366.00,278.00
             366.00,278.00 281.00,278.00 281.00,278.00
             271.83,278.00 253.25,276.37 246.04,281.65
             237.69,287.77 239.00,298.90 239.00,308.00
             239.00,308.00 157.00,308.00 157.00,308.00
             153.04,307.99 149.56,308.21 146.04,305.99
             141.55,303.16 140.26,298.73 138.67,294.00
             138.67,294.00 131.67,273.00 131.67,273.00
             131.67,273.00 93.00,158.00 93.00,158.00
             93.00,158.00 535.00,158.00 535.00,158.00 Z
           M 89.00,236.00
           C 89.00,236.00 106.00,287.00 106.00,287.00
             111.47,303.40 114.55,319.17 130.00,329.48
             144.50,339.15 158.50,338.00 175.00,338.00
             175.00,338.00 239.00,338.00 239.00,338.00
             239.00,338.00 239.00,347.00 239.00,347.00
             239.19,363.07 246.90,367.98 262.00,368.00
             262.00,368.00 347.00,368.00 347.00,368.00
             356.17,368.00 374.75,369.63 381.96,364.35
             390.31,358.23 389.00,347.10 389.00,338.00
             389.00,338.00 453.00,338.00 453.00,338.00
             469.50,338.00 483.50,339.15 498.00,329.48
             513.45,319.17 516.53,303.40 522.00,287.00
             522.00,287.00 539.00,236.00 539.00,236.00
             540.78,240.49 540.00,252.59 540.00,258.00
             540.00,258.00 540.00,306.00 540.00,306.00
             540.00,306.00 540.00,470.00 540.00,470.00
             539.98,482.95 534.95,487.98 522.00,488.00
             522.00,488.00 439.00,488.00 439.00,488.00
             439.00,488.00 106.00,488.00 106.00,488.00
             98.77,487.99 93.14,487.28 89.45,480.00
             87.41,475.97 88.00,468.62 88.00,464.00
             88.00,464.00 88.00,433.00 88.00,433.00
             88.00,433.00 88.00,295.00 88.00,295.00
             88.00,295.00 88.00,255.00 88.00,255.00
             88.00,249.90 87.24,240.43 89.00,236.00 Z
           M 359.00,308.00
           C 359.00,308.00 359.00,338.00 359.00,338.00
             359.00,338.00 269.00,338.00 269.00,338.00
             269.00,338.00 269.00,308.00 269.00,308.00
             269.00,308.00 359.00,308.00 359.00,308.00 Z" />
</svg>
