<?xml version="1.0" encoding="UTF-8" standalone="no"?>
<!DOCTYPE svg PUBLIC "-//W3C//DTD SVG 20010904//EN"
              "http://www.w3.org/TR/2001/REC-SVG-20010904/DTD/svg10.dtd">

<svg xmlns="http://www.w3.org/2000/svg"
     width="2in" height="2in"
     viewBox="0 0 600 600">
  <path id="Selection"
        fill="#8E96A9" stroke="black" stroke-width="1"
        d="M 136.00,147.00
           C 124.23,147.26 111.44,151.46 101.00,156.76
             92.18,161.23 80.80,169.49 74.44,177.00
             49.77,206.10 43.55,242.86 58.72,278.00
             65.19,293.00 74.74,305.12 88.00,314.71
             97.14,321.32 101.28,324.05 112.00,327.95
             122.14,331.63 134.21,333.65 145.00,333.26
             170.96,332.31 194.18,323.36 212.13,303.91
             224.78,290.21 232.34,274.18 236.00,256.00
             236.00,256.00 275.00,285.00 275.00,285.00
             274.04,289.24 272.51,293.66 272.18,298.00
             271.57,306.05 275.86,316.98 281.32,322.83
             299.04,341.79 337.39,334.52 339.82,301.00
             341.12,283.06 325.81,266.45 308.00,266.01
             302.38,265.88 298.28,266.39 293.00,268.46
             289.62,269.79 286.67,272.27 283.00,270.70
             281.05,269.87 275.05,264.83 273.00,263.21
             273.00,263.21 253.00,247.65 253.00,247.65
             250.15,245.44 240.22,238.12 238.60,235.83
             236.87,233.39 236.87,229.91 236.41,227.00
             235.54,221.51 234.35,216.30 232.66,211.00
             230.68,204.83 227.69,197.56 224.40,192.00
             224.40,192.00 217.99,182.17 217.99,182.17
             216.66,178.46 223.51,174.15 226.00,172.00
             226.00,172.00 257.00,146.00 257.00,146.00
             258.46,156.34 262.75,167.02 268.01,176.00
             285.35,205.61 313.20,221.02 347.00,222.26
             358.54,222.68 370.18,220.81 381.00,216.77
             384.22,215.57 395.43,209.75 397.91,210.44
             400.91,211.27 407.47,221.13 409.63,224.00
             409.63,224.00 437.00,260.00 437.00,260.00
             401.74,270.30 377.79,292.96 368.74,329.00
             365.85,340.52 365.74,351.33 367.15,363.00
             367.15,363.00 370.08,379.91 370.08,379.91
             369.40,382.96 364.44,386.04 362.00,387.87
             355.68,392.61 341.31,404.31 335.00,407.00
             330.25,392.07 310.68,376.60 297.00,369.76
             256.39,349.46 207.55,360.72 180.13,397.00
             174.21,404.84 169.75,412.65 166.67,422.00
             164.17,429.60 162.18,436.95 162.00,445.00
             162.00,445.00 126.00,445.00 126.00,445.00
             123.70,445.00 120.26,445.21 118.27,443.98
             114.76,441.80 114.57,435.64 107.91,429.17
             98.68,420.21 85.16,417.39 73.00,421.36
             37.60,432.91 46.59,486.91 83.00,486.97
             92.80,486.99 102.16,483.12 108.91,475.98
             115.95,468.54 115.26,464.11 118.41,462.02
             120.30,460.78 123.78,461.00 126.00,461.00
             126.00,461.00 162.00,461.00 162.00,461.00
             162.23,471.70 166.04,484.43 170.76,494.00
             191.11,535.31 237.81,556.31 282.00,542.80
             309.28,534.45 330.84,514.43 341.55,488.00
             341.55,488.00 346.00,474.00 346.00,474.00
             346.00,474.00 385.00,492.69 385.00,492.69
             388.43,494.27 399.25,498.34 400.81,501.39
             401.95,503.62 400.38,508.37 400.18,511.00
             398.33,535.43 423.72,552.38 446.00,544.45
             459.26,539.73 466.83,527.67 467.82,514.00
             468.80,500.49 459.35,486.52 447.00,481.26
             438.90,478.16 431.24,478.49 423.00,481.26
             414.99,483.51 413.88,486.85 409.00,485.52
             409.00,485.52 397.00,479.78 397.00,479.78
             397.00,479.78 367.00,465.42 367.00,465.42
             363.29,463.80 350.91,458.57 349.02,455.61
             347.54,453.28 348.11,446.27 347.72,443.00
             347.72,443.00 345.37,430.00 345.37,430.00
             344.92,428.21 343.89,425.19 344.51,423.44
             345.42,420.82 351.64,416.64 354.00,414.87
             360.44,410.04 372.50,400.34 379.00,397.00
             383.51,408.77 396.78,420.92 407.00,427.98
             443.57,453.22 492.94,448.46 524.99,417.91
             533.73,409.58 539.00,400.66 544.24,390.00
             548.99,380.35 552.87,365.76 553.00,355.00
             553.48,313.64 532.79,279.86 494.00,263.86
             486.25,260.66 479.31,258.98 471.00,258.05
             467.35,257.64 457.66,257.15 455.09,255.40
             452.23,253.45 445.14,243.35 442.63,240.00
             442.63,240.00 411.00,199.00 411.00,199.00
             428.80,181.18 441.44,158.75 442.00,133.00
             442.00,133.00 482.00,152.75 482.00,152.75
             485.58,154.53 494.03,157.16 494.96,161.10
             495.40,162.94 494.23,167.65 494.09,170.00
             493.58,178.82 497.61,189.68 504.09,195.70
             525.67,215.72 559.47,202.60 561.49,173.00
             562.85,153.03 546.51,137.56 527.00,138.01
             522.10,138.13 517.44,139.24 513.00,141.33
             510.70,142.40 507.42,144.74 505.00,144.81
             502.09,144.89 491.24,138.87 488.00,137.25
             488.00,137.25 456.00,121.75 456.00,121.75
             452.73,120.12 444.51,116.81 442.43,114.61
             439.78,111.80 438.71,103.98 437.57,100.00
             435.69,93.42 432.47,86.88 428.99,81.00
             415.86,58.85 393.30,42.54 368.00,37.45
             362.05,36.25 356.04,35.90 350.00,35.51
             342.74,35.05 331.06,36.86 324.00,38.86
             295.58,46.90 275.61,64.13 263.31,91.00
             260.02,98.17 258.28,104.28 256.80,112.00
             256.03,116.04 256.26,121.61 254.15,124.91
             252.42,127.61 245.73,132.93 243.00,135.27
             243.00,135.27 221.00,154.00 221.00,154.00
             218.50,156.16 208.15,165.33 206.00,166.22
             201.83,167.93 193.86,160.65 190.00,158.43
             179.44,152.35 164.24,147.27 152.00,147.00
             152.00,147.00 152.00,110.00 152.00,110.00
             152.08,97.95 157.16,102.47 165.99,94.79
             173.16,88.55 176.85,80.38 177.49,71.00
             179.88,35.95 131.85,21.95 114.68,52.00
             112.14,56.45 110.39,62.88 110.09,68.00
             109.53,77.63 113.96,87.98 121.17,94.33
             127.70,100.08 133.16,100.67 134.98,103.41
             136.22,105.30 136.00,108.78 136.00,111.00
             136.00,111.00 136.00,147.00 136.00,147.00 Z
           M 140.00,52.33
           C 146.97,51.56 152.73,52.25 157.44,58.09
             165.15,67.64 160.29,83.35 148.00,85.92
             125.13,90.70 117.73,57.88 140.00,52.33 Z
           M 399.00,187.00
           C 399.00,183.02 399.29,177.75 398.21,174.00
             391.52,150.72 366.57,155.00 348.00,155.00
             329.26,155.00 306.21,150.98 299.05,174.00
             297.75,178.20 298.00,181.69 298.00,186.00
             292.46,183.35 288.52,177.96 285.04,173.00
             275.65,159.62 271.15,143.28 271.74,127.00
             272.95,94.18 292.24,65.98 324.00,55.52
             334.42,52.08 342.25,51.88 353.00,52.00
             410.78,52.68 444.79,120.88 414.94,169.00
             410.63,175.94 405.68,182.22 399.00,187.00 Z
           M 341.00,70.52
           C 331.04,73.19 323.11,78.56 318.38,88.00
             307.60,109.49 322.54,135.97 347.00,136.96
             352.17,137.17 357.27,136.33 362.00,134.21
             389.10,122.03 389.01,84.48 362.00,72.31
             357.17,70.13 355.18,70.02 350.00,70.00
             346.53,69.99 344.47,69.97 341.00,70.52 Z
           M 345.00,86.33
           C 349.29,85.86 353.11,85.87 357.00,88.09
             373.76,97.66 365.21,122.55 347.00,120.66
             327.73,118.66 325.16,91.27 345.00,86.33 Z
           M 525.00,154.33
           C 532.72,153.54 538.89,155.97 542.91,163.00
             548.69,173.11 542.55,186.64 531.00,188.67
             517.10,191.11 506.00,176.67 512.12,164.00
             514.93,158.18 518.95,155.78 525.00,154.33 Z
           M 195.00,297.00
           C 194.92,293.21 194.36,287.57 193.16,284.00
             185.65,261.79 161.31,266.00 143.00,266.16
             143.00,266.16 115.00,266.16 115.00,266.16
             105.49,267.99 96.95,275.74 94.30,285.00
             93.06,289.32 93.01,292.59 93.00,297.00
             77.12,285.63 67.23,263.35 67.00,244.00
             66.81,227.83 68.32,216.47 76.31,202.00
             82.23,191.28 90.83,182.11 101.00,175.36
             129.57,156.40 170.35,158.96 195.68,182.35
             220.87,205.61 227.95,240.75 214.14,272.00
             209.77,281.88 203.88,290.65 195.00,297.00 Z
           M 323.00,171.24
           C 323.00,171.24 369.00,171.24 369.00,171.24
             370.86,171.01 373.20,170.98 375.00,171.24
             384.91,173.68 383.05,183.19 383.00,191.00
             382.98,193.44 383.28,196.16 381.43,198.03
             379.64,199.84 374.50,201.53 372.00,202.28
             365.90,204.11 353.27,206.20 347.00,205.96
             339.90,205.68 330.77,203.97 324.00,201.81
             321.87,201.12 317.10,199.51 315.57,198.01
             313.72,196.19 314.01,193.39 314.00,191.00
             313.95,181.85 312.15,174.06 323.00,171.24 Z
           M 143.00,180.59
           C 131.02,181.68 121.94,185.26 115.27,196.00
             101.48,218.21 117.14,248.82 144.00,247.96
             180.93,246.77 189.35,199.17 159.00,183.99
             154.01,181.49 148.53,180.64 143.00,180.59 Z
           M 140.00,197.33
           C 146.48,196.61 151.86,197.32 156.61,202.33
             167.29,213.58 157.89,233.42 142.00,231.66
             123.79,229.64 120.02,202.31 140.00,197.33 Z
           M 510.00,409.00
           C 510.00,405.02 510.29,399.75 509.21,396.00
             506.73,387.38 498.78,379.55 490.00,377.53
             490.00,377.53 459.00,377.00 459.00,377.00
             459.00,377.00 429.00,377.53 429.00,377.53
             420.15,379.57 412.70,387.47 410.05,396.00
             408.75,400.20 409.00,403.69 409.00,408.00
             403.87,405.55 400.90,401.46 397.50,397.00
             388.84,385.64 384.05,372.13 382.92,358.00
             382.92,358.00 382.18,351.00 382.18,351.00
             382.18,351.00 382.83,345.00 382.83,345.00
             383.79,335.42 384.74,329.10 388.45,320.00
             396.54,300.19 414.83,284.16 435.00,277.52
             446.84,273.62 453.88,273.86 466.00,274.00
             472.85,274.08 479.54,275.82 486.00,278.00
             497.48,281.89 505.47,287.47 514.00,296.00
             538.31,320.31 543.56,355.39 528.25,386.00
             523.98,394.52 517.80,403.40 510.00,409.00 Z
           M 118.00,282.22
           C 118.00,282.22 164.00,282.22 164.00,282.22
             165.81,282.01 168.26,281.98 170.00,282.22
             180.01,284.39 178.05,294.25 178.00,302.00
             177.99,303.95 178.17,306.71 177.01,308.36
             174.45,312.01 161.51,314.84 157.00,315.56
             144.92,317.51 132.72,317.15 121.00,313.33
             114.12,311.09 109.14,310.94 109.00,303.00
             108.85,294.00 107.31,285.05 118.00,282.22 Z
           M 303.00,282.33
           C 309.91,281.62 315.62,283.34 319.89,289.17
             327.32,299.32 321.51,314.50 309.00,316.67
             287.75,320.37 279.66,288.07 303.00,282.33 Z
           M 459.00,291.59
           C 446.64,292.64 436.94,296.65 430.36,308.00
             417.44,330.28 433.68,359.80 460.00,358.96
             496.87,357.77 505.16,309.37 474.00,294.80
             469.24,292.57 464.23,291.65 459.00,291.59 Z
           M 456.00,308.33
           C 460.48,307.83 463.88,307.70 467.99,309.92
             484.39,318.79 476.73,344.61 458.00,342.66
             438.78,340.67 435.88,313.34 456.00,308.33 Z
           M 306.00,510.00
           C 305.85,506.65 305.14,500.05 304.03,497.00
             296.27,475.50 273.11,479.00 255.00,479.00
             235.64,479.00 212.02,475.27 205.04,499.00
             203.75,503.41 204.00,506.51 204.00,511.00
             188.96,500.22 178.22,476.41 178.00,458.00
             177.82,442.04 179.05,429.14 187.45,415.00
             194.73,402.76 202.07,395.18 214.00,387.36
             221.78,382.26 231.86,378.84 241.00,377.25
             269.56,372.29 297.16,382.39 315.53,405.00
             334.68,428.56 336.73,462.43 323.24,489.00
             319.01,497.34 313.67,504.51 306.00,510.00 Z
           M 433.00,393.30
           C 433.00,393.30 480.00,393.30 480.00,393.30
             482.09,393.00 485.03,392.91 487.00,393.30
             495.75,396.17 494.04,405.85 494.00,413.00
             493.99,414.93 494.17,417.73 493.01,419.35
             490.81,422.43 478.90,425.42 475.00,426.19
             462.45,428.69 449.23,428.28 437.00,424.33
             429.96,422.06 425.14,422.18 425.00,414.00
             424.86,405.35 423.10,396.67 433.00,393.30 Z
           M 249.00,394.46
           C 242.83,395.84 236.89,398.05 232.09,402.33
             218.30,414.60 217.49,437.57 230.18,450.91
             238.28,459.41 250.58,462.69 262.00,460.53
             285.70,456.06 295.61,427.17 282.40,408.01
             274.61,396.71 262.17,392.64 249.00,394.46 Z
           M 252.00,410.33
           C 259.54,409.56 265.98,412.17 269.91,419.00
             275.66,429.00 269.37,442.68 258.00,444.67
             241.88,447.50 231.06,428.56 241.53,416.10
             244.51,412.55 247.65,411.37 252.00,410.33 Z
           M 80.00,436.39
           C 84.47,435.79 88.98,435.58 93.00,438.01
             107.93,447.02 101.05,472.51 83.00,470.66
             63.82,468.69 60.40,442.28 80.00,436.39 Z
           M 230.00,495.16
           C 230.00,495.16 273.00,495.16 273.00,495.16
             276.72,495.02 281.63,495.14 284.89,497.14
             289.15,499.74 288.98,503.59 289.00,508.00
             289.01,511.03 289.48,519.31 287.98,521.59
             286.50,523.82 281.53,525.44 279.00,526.25
             269.47,529.31 261.91,530.11 252.00,530.00
             245.39,529.92 226.05,526.57 221.57,522.03
             219.72,520.16 220.02,517.44 220.00,515.00
             219.94,505.39 218.79,498.12 230.00,495.16 Z
           M 433.00,495.39
           C 454.54,495.65 456.50,522.26 441.00,528.77
             438.24,529.93 434.96,530.11 432.00,529.96
             420.18,529.34 413.25,515.39 418.45,505.00
             421.57,498.78 426.47,496.40 433.00,495.39 Z" />
</svg>
