<?xml version="1.0" encoding="UTF-8" standalone="no"?>
<!DOCTYPE svg PUBLIC "-//W3C//DTD SVG 20010904//EN"
              "http://www.w3.org/TR/2001/REC-SVG-20010904/DTD/svg10.dtd">

<svg xmlns="http://www.w3.org/2000/svg"
     width="2in" height="2in"
     viewBox="0 0 600 600">
  <path id="Selection"
        fill="#6F7D97" stroke="black" stroke-width="1"
        d="M 112.00,54.08
           C 104.34,55.54 102.46,55.20 95.00,58.79
             69.97,70.82 71.00,93.48 71.00,117.00
             71.00,117.00 71.00,156.00 71.00,156.00
             71.00,156.00 71.00,474.00 71.00,474.00
             71.03,494.80 78.63,513.67 100.00,520.64
             105.49,522.43 111.25,522.99 117.00,523.00
             117.00,523.00 367.00,523.00 367.00,523.00
             378.84,523.02 376.96,526.37 385.01,533.83
             389.97,538.42 399.16,545.28 405.00,548.67
             432.45,564.59 463.08,569.46 494.00,562.12
             547.69,549.37 585.76,497.90 582.09,443.00
             581.26,430.63 580.26,421.87 575.95,410.00
             571.16,396.82 564.76,384.93 555.91,374.00
             543.18,358.30 540.03,362.76 540.00,350.00
             540.00,350.00 540.00,100.00 540.00,100.00
             539.99,94.25 539.43,88.49 537.64,83.00
             536.29,78.85 534.65,75.54 532.07,72.00
             518.06,52.78 499.08,54.00 478.00,54.08
             478.00,54.08 445.00,54.08 445.00,54.08
             445.00,54.08 223.00,54.08 223.00,54.08
             223.00,54.08 151.00,54.08 151.00,54.08
             151.00,54.08 112.00,54.08 112.00,54.08 Z
           M 519.00,140.00
           C 519.00,140.00 92.00,140.00 92.00,140.00
             92.00,140.00 92.00,100.00 92.00,100.00
             92.02,84.58 98.71,75.20 115.00,75.00
             115.00,75.00 185.00,75.00 185.00,75.00
             185.00,75.00 495.00,75.00 495.00,75.00
             505.48,75.02 514.12,78.15 517.89,89.00
             519.50,93.64 519.00,101.87 519.00,107.00
             519.00,107.00 519.00,140.00 519.00,140.00 Z
           M 121.00,97.82
           C 109.72,103.76 113.80,115.89 123.00,117.38
             134.82,119.28 139.08,102.20 127.98,97.82
             125.29,96.84 123.68,97.15 121.00,97.82 Z
           M 164.01,97.65
           C 150.38,103.62 158.88,120.57 170.00,116.93
             180.88,113.37 179.04,94.90 164.01,97.65 Z
           M 207.00,97.66
           C 195.51,102.17 198.29,115.81 208.00,117.38
             219.78,119.28 224.88,102.19 213.00,97.66
             210.70,96.88 209.28,97.22 207.00,97.66 Z
           M 519.00,160.00
           C 519.00,160.00 519.00,344.00 519.00,344.00
             519.00,344.00 507.00,339.68 507.00,339.68
             495.96,335.61 482.82,332.14 471.00,332.00
             471.00,332.00 462.00,332.00 462.00,332.00
             454.98,332.01 452.75,332.62 446.00,333.75
             403.66,340.87 367.82,372.20 354.52,413.00
             350.03,426.76 348.84,439.65 349.00,454.00
             349.14,465.82 352.61,478.96 356.68,490.00
             356.68,490.00 361.00,502.00 361.00,502.00
             361.00,502.00 116.00,502.00 116.00,502.00
             100.78,501.98 92.08,494.67 92.00,479.00
             92.00,479.00 92.00,423.00 92.00,423.00
             92.00,423.00 92.00,160.00 92.00,160.00
             92.00,160.00 519.00,160.00 519.00,160.00 Z
           M 463.00,352.29
           C 471.83,351.66 486.42,354.11 495.00,356.72
             505.77,360.00 516.19,365.45 525.00,372.45
             567.63,406.35 574.87,468.93 539.68,511.00
             532.36,519.75 522.96,527.29 513.00,532.83
             495.85,542.36 480.33,545.22 461.00,545.00
             451.88,544.89 442.61,542.54 434.00,539.67
             376.50,520.50 353.38,454.27 381.12,402.00
             392.32,380.89 414.09,363.29 437.00,356.44
             448.05,353.13 452.60,353.77 463.00,352.29 Z
           M 455.00,438.00
           C 448.37,438.00 424.72,437.27 420.00,439.03
             412.83,441.71 410.52,451.12 416.39,456.35
             419.18,458.83 422.49,458.95 426.00,459.00
             426.00,459.00 455.23,459.00 455.23,459.00
             455.23,459.00 455.23,492.00 455.23,492.00
             456.66,498.16 460.36,502.04 467.00,501.14
             474.31,500.16 475.91,494.34 476.00,488.00
             476.00,488.00 476.00,458.89 476.00,458.89
             476.00,458.89 509.00,458.89 509.00,458.89
             513.93,458.01 517.46,455.10 518.14,450.00
             519.04,443.36 515.16,439.66 509.00,438.23
             509.00,438.23 476.00,438.23 476.00,438.23
             476.00,438.23 476.00,409.00 476.00,409.00
             475.95,405.49 475.83,402.18 473.35,399.39
             468.12,393.52 458.71,395.83 456.03,403.00
             454.27,407.72 455.00,431.37 455.00,438.00 Z" />
</svg>
