<?xml version="1.0" encoding="UTF-8" standalone="no"?>
<!DOCTYPE svg PUBLIC "-//W3C//DTD SVG 20010904//EN"
              "http://www.w3.org/TR/2001/REC-SVG-20010904/DTD/svg10.dtd">

<svg xmlns="http://www.w3.org/2000/svg"
     width="2in" height="2in"
     viewBox="0 0 600 600">
  <path id="Selection"
        fill="#6F7D97" stroke="black" stroke-width="1"
        d="M 239.00,289.00
           C 222.40,291.57 190.30,309.13 176.00,318.67
             131.61,348.26 98.81,388.47 79.00,438.00
             71.98,455.55 65.72,474.02 64.51,493.00
             63.03,516.36 78.26,539.14 99.00,548.88
             108.88,553.52 121.15,554.98 132.00,555.00
             132.00,555.00 364.00,555.00 364.00,555.00
             370.95,554.99 378.44,554.49 383.91,549.66
             393.65,541.07 392.24,524.86 381.00,518.23
             376.13,515.35 369.52,515.01 364.00,515.00
             364.00,515.00 127.00,515.00 127.00,515.00
             124.40,515.00 121.50,515.11 119.00,514.35
             109.73,511.56 103.73,502.50 104.04,493.00
             104.43,481.27 113.93,456.14 118.86,445.00
             142.24,392.14 187.56,350.66 241.00,329.45
             281.14,313.52 326.96,310.77 369.00,320.01
             381.63,322.79 394.06,327.08 406.00,332.01
             416.05,336.16 424.80,341.02 434.96,333.36
             443.98,326.56 444.72,312.14 436.79,304.21
             431.53,298.95 408.92,290.75 401.00,288.00
             421.64,271.12 436.44,254.17 446.19,229.00
             452.23,213.40 453.99,202.48 455.09,186.00
             455.09,186.00 455.66,180.00 455.66,180.00
             455.66,180.00 455.00,170.00 455.00,170.00
             454.85,154.05 450.09,138.52 443.85,124.00
             438.03,110.45 428.28,95.54 417.99,85.00
             367.20,32.97 286.37,29.73 231.00,76.44
             219.46,86.17 211.11,97.15 203.40,110.00
             195.14,123.76 189.15,139.12 186.59,155.00
             183.38,174.91 183.83,195.49 189.29,215.00
             194.74,234.46 204.65,253.86 218.17,269.00
             218.17,269.00 239.00,289.00 239.00,289.00 Z
           M 309.00,83.28
           C 328.34,81.48 350.00,84.67 367.00,94.46
             381.62,102.88 397.03,118.14 405.10,133.00
             423.16,166.25 419.15,210.92 394.86,240.00
             386.43,250.09 379.60,256.32 368.00,262.70
             346.92,274.27 335.34,275.27 312.00,275.00
             304.10,274.90 295.45,272.53 288.00,270.00
             253.59,258.27 224.44,223.23 224.00,186.00
             223.84,171.79 223.97,161.80 228.52,148.00
             233.18,133.84 240.51,122.53 251.00,112.00
             269.17,93.75 283.81,86.98 309.00,83.28 Z
           M 461.00,440.00
           C 461.00,440.00 413.00,440.00 413.00,440.00
             407.48,440.01 400.87,440.35 396.00,443.23
             384.76,449.86 383.35,466.07 393.09,474.66
             397.95,478.95 404.74,479.92 411.00,480.00
             411.00,480.00 461.00,480.00 461.00,480.00
             461.00,480.00 461.00,528.00 461.00,528.00
             461.01,533.52 461.35,540.13 464.23,545.00
             470.86,556.24 487.07,557.65 495.66,547.91
             499.95,543.05 500.92,536.26 501.00,530.00
             501.00,530.00 501.00,480.00 501.00,480.00
             501.00,480.00 550.00,480.00 550.00,480.00
             555.60,479.97 562.24,479.38 566.99,476.15
             579.36,467.73 577.83,448.18 564.00,442.22
             557.51,439.43 548.04,440.00 541.00,440.00
             541.00,440.00 501.00,440.00 501.00,440.00
             501.00,440.00 501.00,392.00 501.00,392.00
             500.99,386.48 500.65,379.87 497.77,375.00
             491.14,363.76 474.93,362.35 466.34,372.09
             462.05,376.95 461.08,383.74 461.00,390.00
             461.00,390.00 461.00,440.00 461.00,440.00 Z" />
</svg>
