<?xml version="1.0" encoding="UTF-8" standalone="no"?>
<!DOCTYPE svg PUBLIC "-//W3C//DTD SVG 20010904//EN"
              "http://www.w3.org/TR/2001/REC-SVG-20010904/DTD/svg10.dtd">

<svg xmlns="http://www.w3.org/2000/svg"
     width="2in" height="2in"
     viewBox="0 0 600 600">
  <path id="Selection"
        fill="#6F7D97" stroke="black" stroke-width="1"
        d="M 359.00,64.53
           C 348.72,67.73 339.93,79.16 332.83,87.00
             332.83,87.00 295.00,125.00 295.00,125.00
             295.00,125.00 157.00,263.00 157.00,263.00
             157.00,263.00 140.00,279.00 140.00,279.00
             140.00,279.00 99.00,320.00 99.00,320.00
             89.16,329.84 81.02,335.16 81.00,350.00
             81.00,350.00 81.00,420.00 81.00,420.00
             81.02,432.09 85.02,438.84 98.00,439.00
             98.00,439.00 169.00,439.00 169.00,439.00
             183.95,438.98 187.94,432.06 198.00,422.00
             198.00,422.00 226.00,394.00 226.00,394.00
             226.00,394.00 362.00,258.00 362.00,258.00
             362.00,258.00 425.00,195.00 425.00,195.00
             431.50,188.50 450.36,171.07 453.59,164.00
             459.20,151.70 448.80,142.80 441.00,135.00
             441.00,135.00 387.01,81.00 387.01,81.00
             378.34,72.11 373.25,62.23 359.00,64.53 Z
           M 363.00,104.20
           C 368.42,105.88 372.99,111.99 377.00,116.00
             377.00,116.00 404.00,143.00 404.00,143.00
             406.37,145.37 414.99,153.33 415.66,156.00
             416.44,159.11 412.93,162.03 411.00,164.00
             411.00,164.00 395.00,180.00 395.00,180.00
             393.18,181.80 389.69,185.80 387.00,185.80
             384.31,185.80 380.82,181.80 379.00,180.00
             379.00,180.00 363.00,164.00 363.00,164.00
             363.00,164.00 342.00,143.00 342.00,143.00
             340.12,141.12 334.93,136.37 334.34,134.00
             333.51,130.68 337.91,127.11 340.00,125.00
             345.06,119.90 356.95,106.07 363.00,104.20 Z
           M 310.00,156.00
           C 310.00,156.00 364.00,210.00 364.00,210.00
             359.73,215.97 351.44,223.56 346.00,229.00
             346.00,229.00 316.00,259.00 316.00,259.00
             316.00,259.00 214.00,360.00 214.00,360.00
             214.00,360.00 180.00,394.00 180.00,394.00
             173.36,400.64 170.78,405.93 161.00,406.00
             161.00,406.00 143.00,407.00 143.00,407.00
             143.00,407.00 113.00,407.00 113.00,407.00
             113.00,407.00 113.00,360.00 113.00,360.00
             113.02,348.78 118.28,346.72 126.00,339.00
             126.00,339.00 160.00,305.00 160.00,305.00
             160.00,305.00 259.00,206.00 259.00,206.00
             259.00,206.00 291.00,174.00 291.00,174.00
             296.44,168.56 304.03,160.27 310.00,156.00 Z
           M 93.00,490.53
           C 86.66,492.56 81.94,497.11 81.20,504.00
             79.76,517.41 90.84,521.98 102.00,522.00
             102.00,522.00 184.00,522.00 184.00,522.00
             184.00,522.00 527.00,522.00 527.00,522.00
             531.28,521.99 535.13,522.14 539.00,519.91
             548.90,514.21 549.85,500.50 540.96,493.42
             536.54,489.90 532.30,490.01 527.00,490.00
             527.00,490.00 236.00,490.00 236.00,490.00
             236.00,490.00 142.00,490.00 142.00,490.00
             142.00,490.00 93.00,490.53 93.00,490.53 Z" />
</svg>
