<?xml version="1.0" encoding="UTF-8" standalone="no"?>
<!DOCTYPE svg PUBLIC "-//W3C//DTD SVG 20010904//EN"
              "http://www.w3.org/TR/2001/REC-SVG-20010904/DTD/svg10.dtd">

<svg xmlns="http://www.w3.org/2000/svg"
     width="2in" height="2in"
     viewBox="0 0 600 600">
  <path id="Selection"
        fill="#FFFFFF" stroke="black" stroke-width="1"
        d="M 286.00,544.00
           C 286.00,544.00 286.00,361.00 286.00,361.00
             286.00,361.00 244.00,361.00 244.00,361.00
             233.93,360.98 228.16,358.09 228.00,347.00
             228.00,347.00 227.00,298.00 227.00,298.00
             227.03,291.17 227.57,284.96 234.02,281.01
             238.52,278.24 245.76,279.00 251.00,279.00
             251.00,279.00 286.00,279.00 286.00,279.00
             286.00,279.00 286.00,239.00 286.00,239.00
             286.00,204.25 287.38,173.12 314.00,147.01
             318.97,142.14 324.95,137.33 331.00,133.87
             339.43,129.05 348.54,125.43 358.00,123.23
             377.95,118.61 407.00,119.97 428.00,120.00
             435.06,120.01 441.15,120.84 444.69,128.00
             446.49,131.66 446.00,138.79 446.00,143.00
             446.00,143.00 446.00,175.00 446.00,175.00
             446.00,177.53 446.08,180.57 445.44,183.00
             442.26,195.13 430.66,193.00 421.00,193.00
             406.36,193.00 386.85,191.10 375.21,201.68
             369.40,206.96 367.09,217.41 367.00,225.00
             367.00,225.00 367.00,279.00 367.00,279.00
             367.00,279.00 429.00,279.00 429.00,279.00
             435.31,279.01 442.36,279.12 446.26,285.04
             449.31,289.67 447.63,297.78 447.05,303.00
             447.05,303.00 443.15,336.00 443.15,336.00
             442.52,341.30 442.01,350.55 439.44,354.96
             435.90,361.06 431.24,360.99 425.00,361.00
             425.00,361.00 367.00,361.00 367.00,361.00
             367.00,361.00 367.00,544.00 367.00,544.00
             367.00,544.00 471.00,544.00 471.00,544.00
             478.05,543.99 490.36,542.65 497.00,540.48
             529.01,530.03 544.95,502.50 545.00,470.00
             545.00,470.00 545.00,106.00 545.00,106.00
             544.99,98.95 543.65,86.64 541.48,80.00
             531.03,47.99 503.50,32.05 471.00,32.00
             471.00,32.00 107.00,32.00 107.00,32.00
             74.50,32.05 46.97,47.99 36.52,80.00
             34.35,86.64 33.01,98.95 33.00,106.00
             33.00,106.00 33.00,470.00 33.00,470.00
             33.05,502.50 48.99,530.03 81.00,540.48
             87.64,542.65 99.95,543.99 107.00,544.00
             107.00,544.00 286.00,544.00 286.00,544.00 Z" />
</svg>
