<?xml version="1.0" encoding="UTF-8" standalone="no"?>
<!DOCTYPE svg PUBLIC "-//W3C//DTD SVG 20010904//EN"
              "http://www.w3.org/TR/2001/REC-SVG-20010904/DTD/svg10.dtd">

<svg xmlns="http://www.w3.org/2000/svg"
     width="2in" height="2in"
     viewBox="0 0 600 600">
  <path id="Selection"
        fill="#000000" stroke="black" stroke-width="1"
        d="M 68.00,309.00
           C 68.00,309.00 68.00,281.00 68.00,281.00
             70.57,283.04 72.83,285.59 76.01,286.65
             82.15,288.72 100.95,285.25 108.00,284.08
             115.17,282.89 124.14,281.98 122.76,272.00
             122.05,266.85 112.91,254.62 109.00,251.00
             115.18,245.34 124.93,239.71 129.47,233.99
             129.47,233.99 155.90,189.00 155.90,189.00
             162.03,180.10 169.82,174.95 174.73,165.00
             184.56,145.06 177.25,120.24 158.00,109.00
             195.15,77.09 252.23,58.00 301.00,58.00
             298.29,62.28 286.50,77.73 282.91,80.30
             280.16,82.27 274.40,83.81 271.00,85.05
             271.00,85.05 246.00,94.00 246.00,94.00
             246.00,94.00 226.00,101.00 226.00,101.00
             221.72,102.46 216.52,103.74 213.41,107.21
             211.11,109.79 208.21,117.51 206.80,121.00
             206.80,121.00 196.01,147.00 196.01,147.00
             193.67,152.71 191.52,158.04 194.57,164.00
             194.57,164.00 213.42,191.00 213.42,191.00
             215.18,193.47 219.93,198.97 219.42,202.00
             219.10,203.91 209.24,216.29 207.29,219.00
             194.17,237.29 179.30,247.47 179.00,273.00
             178.73,296.71 188.46,317.43 211.00,327.69
             217.97,330.86 225.43,332.12 233.00,332.83
             240.65,333.55 247.65,331.16 255.00,329.67
             259.03,328.85 263.59,328.58 266.40,332.23
             269.51,336.26 266.51,341.29 269.47,349.00
             273.50,359.50 280.50,361.94 282.01,370.00
             283.55,378.22 277.96,386.31 277.18,397.00
             276.23,410.11 285.57,426.07 290.19,438.00
             294.25,448.47 298.38,463.28 307.02,470.79
             317.22,479.66 329.79,475.89 340.00,469.30
             347.72,464.32 355.68,457.43 359.67,449.00
             359.67,449.00 364.05,436.00 364.05,436.00
             364.05,436.00 371.87,425.00 371.87,425.00
             371.87,425.00 377.53,413.00 377.53,413.00
             381.96,405.34 390.04,401.07 392.76,390.00
             396.42,375.09 385.96,365.88 391.97,355.00
             399.54,341.28 423.55,327.87 426.50,311.00
             426.90,308.89 426.95,307.10 426.50,305.00
             422.54,288.00 402.80,295.67 393.32,285.81
             381.60,273.61 375.02,238.66 361.91,226.18
             355.77,220.34 346.03,217.44 338.00,215.14
             328.54,212.43 322.76,209.20 313.00,213.07
             308.76,214.75 307.54,215.73 306.00,220.00
             302.49,218.89 295.97,215.89 294.02,212.67
             291.94,209.25 294.61,203.41 286.96,197.64
             276.83,189.99 255.18,193.44 243.00,194.00
             245.51,185.49 253.29,178.41 262.00,176.52
             268.27,175.16 279.84,177.79 281.72,168.00
             283.42,159.12 275.46,155.65 268.00,156.18
             251.85,157.32 236.87,162.73 229.00,178.00
             226.16,174.88 215.04,160.47 214.32,157.00
             213.75,154.25 216.14,149.65 217.20,147.00
             219.87,140.34 225.20,123.63 231.04,120.27
             231.04,120.27 250.00,113.33 250.00,113.33
             250.00,113.33 278.00,103.34 278.00,103.34
             282.13,101.91 290.75,99.48 294.00,97.30
             299.30,93.75 312.57,76.03 317.40,70.00
             319.49,67.39 324.20,60.68 327.17,59.69
             329.61,58.87 341.86,61.02 345.00,61.61
             361.00,64.61 376.92,68.81 392.00,75.01
             444.89,96.77 488.57,135.65 514.25,187.00
             519.66,197.84 528.87,217.33 530.93,229.00
             532.00,235.09 526.86,237.39 523.65,242.00
             520.62,246.33 519.43,251.82 519.00,257.00
             519.00,257.00 510.18,235.00 510.18,235.00
             507.65,230.12 504.77,227.10 501.27,223.00
             491.91,212.06 488.19,207.02 473.00,207.00
             467.86,206.99 459.50,206.39 455.00,208.57
             446.28,212.79 444.25,224.15 451.00,231.00
             437.89,243.01 431.67,244.39 417.00,252.00
             417.00,252.00 398.26,215.00 398.26,215.00
             394.28,206.55 397.15,203.96 395.26,199.00
             393.45,194.24 380.42,182.92 376.00,179.21
             371.58,175.50 368.26,174.79 363.00,173.00
             356.34,170.73 346.10,166.54 342.60,176.00
             338.31,187.61 353.12,189.25 360.00,192.71
             363.21,194.32 364.39,195.60 367.00,197.93
             369.70,200.35 374.40,203.89 375.98,207.00
             377.95,210.90 375.79,213.21 378.80,220.00
             378.80,220.00 397.58,256.00 397.58,256.00
             397.58,256.00 404.63,268.79 404.63,268.79
             410.69,276.41 419.80,271.37 427.00,268.79
             438.99,264.21 452.25,255.95 462.00,247.71
             470.59,240.44 475.31,237.51 471.00,226.00
             479.06,226.28 481.41,230.07 486.41,236.00
             496.74,248.24 496.76,254.67 502.19,269.00
             503.90,273.50 506.04,281.49 509.27,284.69
             513.81,289.38 519.31,288.24 524.00,284.69
             530.59,279.50 535.70,272.28 537.00,264.00
             540.79,272.18 540.11,293.35 540.00,303.00
             540.00,303.00 539.09,313.00 539.09,313.00
             535.81,357.86 517.64,404.83 489.55,440.00
             484.48,446.35 473.79,458.52 468.00,463.91
             468.00,463.91 451.06,479.04 451.06,479.04
             442.77,487.71 448.81,497.35 457.00,496.58
             462.13,496.10 467.22,491.12 471.00,487.87
             481.77,478.62 487.59,472.54 496.95,462.00
             524.39,431.09 544.53,390.33 553.42,350.00
             555.53,340.45 558.89,320.42 559.04,311.00
             559.04,311.00 559.04,301.00 559.04,301.00
             559.04,301.00 559.92,293.00 559.92,293.00
             559.92,293.00 559.00,277.00 559.00,277.00
             558.80,259.81 552.15,229.50 546.65,213.00
             520.07,133.28 455.83,71.49 375.00,48.43
             353.33,42.24 339.20,40.43 317.00,38.91
             317.00,38.91 308.00,38.02 308.00,38.02
             308.00,38.02 294.00,39.00 294.00,39.00
             262.90,39.36 231.54,46.90 203.00,59.15
             174.64,71.33 144.73,91.12 123.00,113.00
             90.45,145.78 67.32,187.24 56.13,232.00
             53.17,243.83 49.14,265.08 49.00,277.00
             49.00,277.00 48.09,293.00 48.09,293.00
             48.09,293.00 49.00,306.00 49.00,306.00
             49.36,336.77 57.35,367.78 69.43,396.00
             81.41,424.00 99.98,451.09 121.04,473.00
             121.04,473.00 131.00,482.17 131.00,482.17
             151.78,500.87 167.87,512.04 193.00,524.26
             217.44,536.14 243.08,543.77 270.00,547.28
             270.00,547.28 286.00,549.00 286.00,549.00
             286.00,549.00 303.00,549.82 303.00,549.82
             303.00,549.82 321.00,549.00 321.00,549.00
             335.41,548.93 362.96,543.34 377.00,539.02
             381.87,537.53 395.34,533.65 398.58,530.44
             403.60,525.50 401.53,517.27 395.00,514.90
             390.20,513.17 379.95,517.69 375.00,519.33
             361.80,523.73 348.76,526.58 335.00,528.57
             335.00,528.57 304.00,530.99 304.00,530.99
             304.00,530.99 286.00,530.00 286.00,530.00
             261.24,529.71 226.52,518.54 204.00,508.30
             193.86,503.70 184.27,498.18 175.00,492.00
             172.14,490.09 166.40,486.62 164.61,483.91
             162.11,480.12 165.11,469.54 166.00,465.00
             166.00,465.00 169.58,447.00 169.58,447.00
             170.13,443.92 170.42,439.81 172.56,437.41
             174.83,434.88 180.72,433.46 185.00,430.37
             192.37,425.02 196.78,416.01 196.99,407.00
             197.28,394.41 193.13,390.44 192.36,384.00
             191.86,379.75 193.71,377.45 193.96,372.00
             194.51,360.25 189.21,349.40 179.00,343.21
             169.08,337.20 153.32,339.03 144.00,332.78
             144.00,332.78 113.00,309.37 113.00,309.37
             108.96,306.34 102.98,300.79 98.00,300.25
             93.22,299.73 73.78,307.07 68.00,309.00 Z
           M 97.00,266.00
           C 87.48,268.79 83.57,268.88 76.02,261.95
             74.22,260.30 71.87,258.33 71.38,255.83
             70.73,252.48 74.61,238.07 75.63,234.00
             83.74,201.54 100.55,168.70 121.92,143.00
             125.31,138.92 136.61,125.31 141.00,123.96
             147.81,121.86 159.92,133.06 159.92,146.00
             159.92,158.94 149.97,164.88 142.82,174.00
             142.82,174.00 122.15,209.00 122.15,209.00
             120.03,212.69 115.55,220.87 112.79,223.54
             112.79,223.54 95.00,236.58 95.00,236.58
             91.68,238.98 87.68,241.69 86.75,246.00
             85.59,251.39 94.16,261.06 97.00,266.00 Z
           M 313.00,156.62
           C 300.61,160.17 303.93,174.21 313.00,175.62
             326.29,177.68 328.86,156.12 313.00,156.62 Z
           M 270.00,212.00
           C 270.27,222.47 275.95,224.69 284.00,230.00
             297.42,238.84 311.05,247.32 323.00,231.00
             330.65,233.22 344.16,235.36 349.47,241.21
             353.55,245.70 358.14,258.01 360.42,264.00
             365.64,277.68 374.40,297.49 387.00,305.44
             392.81,309.11 398.44,309.81 405.00,311.00
             402.35,316.60 397.33,320.67 393.00,325.00
             382.20,335.80 371.61,344.71 370.32,361.00
             369.69,368.97 375.05,377.79 373.77,385.00
             372.87,390.10 366.44,395.49 363.16,400.00
             357.54,407.70 358.69,408.92 355.96,414.00
             355.96,414.00 348.77,424.00 348.77,424.00
             343.45,431.74 344.33,436.27 341.90,440.99
             339.76,445.15 334.80,449.30 331.00,451.96
             327.96,454.08 322.92,457.72 319.21,455.31
             315.96,453.20 313.08,444.73 311.60,441.00
             311.60,441.00 302.00,417.00 302.00,417.00
             299.42,410.92 296.49,404.78 296.72,398.00
             296.99,390.41 302.64,379.89 301.70,371.00
             301.06,364.99 299.21,359.07 295.90,354.00
             293.58,350.44 289.02,345.63 287.72,342.00
             286.34,338.14 287.68,334.16 286.21,329.00
             282.59,316.24 271.76,309.72 259.00,310.01
             259.00,310.01 237.00,313.82 237.00,313.82
             234.07,314.03 231.85,313.56 229.00,313.08
             211.69,310.16 200.56,298.43 198.29,281.00
             195.37,258.61 208.76,248.62 220.77,233.00
             224.60,228.00 230.63,218.02 236.00,215.31
             241.76,212.41 262.80,212.00 270.00,212.00 Z
           M 146.00,469.00
           C 137.16,464.82 124.19,448.09 117.80,440.00
             100.94,418.65 84.91,388.23 77.43,362.00
             77.43,362.00 70.00,328.00 70.00,328.00
             70.00,328.00 95.00,321.08 95.00,321.08
             98.46,321.46 106.02,327.87 109.00,330.21
             109.00,330.21 140.00,352.93 140.00,352.93
             148.43,356.73 167.57,355.43 172.97,363.19
             177.65,370.45 172.09,375.80 172.97,386.00
             173.97,393.55 178.56,401.04 177.77,407.00
             176.11,419.68 161.80,415.80 155.70,424.10
             153.23,427.46 152.00,435.71 151.25,440.00
             151.25,440.00 146.00,469.00 146.00,469.00 Z
           M 442.00,357.57
           C 432.73,360.45 433.35,369.02 427.47,375.90
             422.33,381.92 412.95,382.68 407.48,391.09
             401.63,400.07 404.53,406.91 403.90,414.00
             403.55,417.92 402.12,420.40 400.86,424.00
             396.00,437.95 400.69,458.68 418.00,460.21
             427.33,461.04 432.72,455.21 437.30,448.00
             443.29,438.57 449.79,414.64 453.14,403.00
             454.54,398.13 458.06,388.67 457.79,384.00
             457.50,379.01 453.18,362.81 449.61,359.65
             447.08,357.41 445.14,357.36 442.00,357.57 Z
           M 435.00,396.00
           C 432.38,407.59 425.69,429.96 420.00,440.00
             415.56,433.97 420.50,427.23 422.22,421.00
             423.98,414.60 421.91,405.80 424.02,402.21
             425.93,398.98 431.56,396.98 435.00,396.00 Z
           M 425.00,497.74
           C 421.35,499.15 418.46,500.89 417.45,505.00
             415.75,511.86 422.19,518.18 429.00,516.42
             440.13,513.53 438.49,496.67 425.00,497.74 Z" />
</svg>
