<?xml version="1.0" encoding="UTF-8" standalone="no"?>
<!DOCTYPE svg PUBLIC "-//W3C//DTD SVG 20010904//EN"
              "http://www.w3.org/TR/2001/REC-SVG-20010904/DTD/svg10.dtd">

<svg xmlns="http://www.w3.org/2000/svg"
     width="2in" height="2in"
     viewBox="0 0 600 600">
  <path id="Selection"
        fill="#6F7D97" stroke="black" stroke-width="1"
        d="M 60.00,123.53
           C 50.70,126.31 45.39,132.20 44.53,142.00
             43.75,150.85 49.46,159.63 58.00,162.20
             60.98,163.10 63.93,163.00 67.00,163.00
             67.00,163.00 157.00,163.00 157.00,163.00
             157.00,163.00 533.00,163.00 533.00,163.00
             545.00,162.98 554.27,158.19 555.47,145.00
             556.34,135.51 550.20,126.29 541.00,123.64
             538.43,122.89 535.65,123.00 533.00,123.00
             533.00,123.00 442.00,123.00 442.00,123.00
             442.00,123.00 186.00,123.00 186.00,123.00
             186.00,123.00 103.00,123.00 103.00,123.00
             103.00,123.00 60.00,123.53 60.00,123.53 Z
           M 59.00,280.53
           C 42.01,285.98 39.17,307.43 54.00,317.30
             58.27,320.14 62.13,319.99 67.00,320.00
             67.00,320.00 533.00,320.00 533.00,320.00
             537.33,319.99 541.08,320.15 545.00,317.91
             558.52,310.22 558.88,291.27 546.00,282.70
             541.73,279.86 537.87,280.01 533.00,280.00
             533.00,280.00 215.00,280.00 215.00,280.00
             215.00,280.00 112.00,280.00 112.00,280.00
             112.00,280.00 59.00,280.53 59.00,280.53 Z
           M 59.00,437.53
           C 44.84,441.94 39.45,459.04 49.21,469.96
             54.81,476.22 60.13,476.99 68.00,477.00
             68.00,477.00 533.00,477.00 533.00,477.00
             540.69,476.99 545.35,476.05 550.79,469.96
             558.85,460.94 556.44,445.61 545.99,439.53
             541.48,436.91 537.99,437.01 533.00,437.00
             533.00,437.00 215.00,437.00 215.00,437.00
             215.00,437.00 112.00,437.00 112.00,437.00
             112.00,437.00 59.00,437.53 59.00,437.53 Z" />
</svg>
