<?xml version="1.0" encoding="UTF-8" standalone="no"?>
<!DOCTYPE svg PUBLIC "-//W3C//DTD SVG 20010904//EN"
              "http://www.w3.org/TR/2001/REC-SVG-20010904/DTD/svg10.dtd">

<svg xmlns="http://www.w3.org/2000/svg"
     width="2in" height="2in"
     viewBox="0 0 600 600">
  <path id="Selection"
        fill="#FFFFFF" stroke="black" stroke-width="1"
        d="M 82.00,35.08
           C 74.20,36.56 70.52,36.48 63.00,40.13
             36.18,53.17 37.00,77.53 37.00,103.00
             37.00,103.00 37.00,146.00 37.00,146.00
             37.00,146.00 37.00,494.00 37.00,494.00
             37.01,499.56 37.89,508.73 39.44,514.00
             40.78,518.54 42.45,522.03 45.02,526.00
             60.98,550.68 88.55,547.00 114.00,547.00
             114.00,547.00 143.00,547.00 143.00,547.00
             143.00,547.00 496.00,547.00 496.00,547.00
             501.56,546.99 510.73,546.11 516.00,544.56
             520.54,543.22 524.03,541.55 528.00,538.98
             552.68,523.02 549.00,495.45 549.00,470.00
             549.00,470.00 549.00,441.00 549.00,441.00
             549.00,441.00 549.00,88.00 549.00,88.00
             548.99,82.44 548.11,73.27 546.56,68.00
             545.22,63.46 543.55,59.97 540.98,56.00
             525.13,31.49 498.29,35.00 473.00,35.08
             473.00,35.08 445.00,35.08 445.00,35.08
             445.00,35.08 203.00,35.08 203.00,35.08
             203.00,35.08 124.00,35.08 124.00,35.08
             124.00,35.08 82.00,35.08 82.00,35.08 Z
           M 147.00,91.29
           C 155.24,90.51 164.21,91.33 172.00,94.23
             179.99,97.20 184.87,100.02 191.00,106.01
             195.20,110.12 198.61,113.82 201.49,119.00
             217.83,148.48 203.52,187.64 171.00,197.97
             164.73,199.96 158.59,201.14 152.00,200.99
             106.21,199.95 81.79,146.28 110.47,111.00
             120.50,98.65 131.73,93.82 147.00,91.29 Z
           M 318.00,255.00
           C 324.81,245.41 333.65,235.92 344.00,230.17
             355.44,223.81 372.89,219.16 386.00,219.00
             386.00,219.00 406.00,219.00 406.00,219.00
             427.36,219.03 453.46,228.80 467.70,245.01
             489.21,269.50 494.95,305.47 495.00,337.00
             495.00,337.00 496.00,353.00 496.00,353.00
             496.00,353.00 496.00,472.00 496.00,472.00
             495.99,477.83 495.94,484.37 490.81,488.30
             486.08,491.93 476.83,491.00 471.00,491.00
             471.00,491.00 426.00,491.00 426.00,491.00
             419.71,490.99 414.56,490.93 410.74,484.98
             408.73,481.86 409.01,478.53 409.00,475.00
             409.00,475.00 409.00,446.00 409.00,446.00
             409.00,446.00 409.00,353.00 409.00,353.00
             409.00,353.00 408.17,344.00 408.17,344.00
             406.87,330.40 405.45,318.35 396.76,307.00
             381.56,287.15 351.18,287.55 334.46,305.29
             323.32,317.11 318.02,339.06 318.00,355.00
             318.00,355.00 318.00,474.00 318.00,474.00
             317.99,480.26 318.10,485.30 311.98,488.91
             307.16,491.77 298.62,491.00 293.00,491.00
             293.00,491.00 251.00,491.00 251.00,491.00
             246.11,490.99 241.12,491.11 237.22,487.58
             233.50,484.22 233.06,479.69 233.00,475.00
             233.00,475.00 233.00,444.00 233.00,444.00
             233.00,444.00 233.00,292.00 233.00,292.00
             233.00,292.00 233.00,240.00 233.00,240.00
             233.02,228.82 235.90,223.06 248.00,223.00
             248.00,223.00 302.00,223.00 302.00,223.00
             304.44,223.00 307.73,222.87 310.00,223.74
             320.95,227.94 318.00,245.40 318.00,255.00 Z
           M 121.00,223.20
           C 121.00,223.20 178.00,223.20 178.00,223.20
             185.24,223.01 191.07,223.61 194.69,231.00
             196.53,234.76 196.00,242.63 196.00,247.00
             196.00,247.00 196.00,281.00 196.00,281.00
             196.00,281.00 196.00,472.00 196.00,472.00
             195.99,478.90 195.71,484.97 188.98,488.91
             184.12,491.77 175.65,491.00 170.00,491.00
             170.00,491.00 129.00,491.00 129.00,491.00
             123.53,490.99 118.59,491.07 114.56,486.66
             111.12,482.91 111.02,478.77 111.00,474.00
             111.00,474.00 111.00,442.00 111.00,442.00
             111.00,442.00 111.00,283.00 111.00,283.00
             111.00,283.00 111.00,238.00 111.00,238.00
             111.11,230.22 113.27,225.89 121.00,223.20 Z" />
</svg>
