<?xml version="1.0" encoding="UTF-8" standalone="no"?>
<!DOCTYPE svg PUBLIC "-//W3C//DTD SVG 20010904//EN"
              "http://www.w3.org/TR/2001/REC-SVG-20010904/DTD/svg10.dtd">

<svg xmlns="http://www.w3.org/2000/svg"
     width="2in" height="2in"
     viewBox="0 0 600 600">
  <path id="Selection"
        fill="#6F7D97" stroke="black" stroke-width="1"
        d="M 116.00,38.59
           C 108.14,39.23 106.11,38.83 98.00,40.90
             76.25,46.43 58.64,62.53 49.87,83.00
             46.78,90.21 45.52,97.25 44.92,105.00
             41.67,146.32 72.60,183.50 115.00,184.00
             134.72,184.23 153.54,177.59 167.83,163.71
             194.96,137.38 197.36,92.81 172.70,64.00
             165.16,55.18 158.33,50.25 148.00,45.26
             137.82,40.34 127.21,38.68 116.00,38.59 Z
           M 299.00,38.59
           C 299.00,38.59 288.00,39.44 288.00,39.44
             267.75,42.61 249.36,54.62 238.44,72.00
             208.81,119.16 241.23,183.34 298.00,184.00
             308.80,184.12 320.11,182.18 330.00,177.69
             374.49,157.49 386.07,101.22 355.54,64.00
             349.03,56.07 340.19,49.73 331.00,45.26
             320.92,40.36 310.12,38.68 299.00,38.59 Z
           M 482.00,38.59
           C 482.00,38.59 470.00,39.61 470.00,39.61
             448.15,43.48 428.71,57.26 418.32,77.00
             393.48,124.18 426.92,183.37 481.00,184.00
             491.42,184.12 502.40,182.31 512.00,178.13
             558.21,157.97 569.18,99.17 536.71,62.00
             530.79,55.22 522.18,49.08 514.00,45.31
             503.39,40.41 493.61,38.69 482.00,38.59 Z
           M 109.00,56.30
           C 126.69,54.54 144.04,59.05 156.71,72.17
             182.41,98.77 175.25,144.10 142.00,160.73
             131.36,166.05 124.49,166.13 113.00,166.00
             76.01,165.56 53.16,125.23 65.09,92.00
             72.15,72.32 88.90,60.05 109.00,56.30 Z
           M 292.00,56.30
           C 309.24,54.59 324.81,58.55 337.71,70.62
             365.24,96.35 359.48,142.31 326.00,160.11
             314.61,166.17 307.40,166.14 295.00,166.00
             267.45,165.67 245.13,139.67 245.00,113.00
             245.00,113.00 245.00,108.00 245.00,108.00
             245.13,80.98 266.54,61.05 292.00,56.30 Z
           M 475.00,56.29
           C 490.90,54.78 505.49,57.90 518.00,68.32
             548.17,93.47 543.62,141.26 509.00,160.10
             497.92,166.13 490.12,166.14 478.00,166.00
             457.56,165.76 437.86,149.87 431.09,131.00
             427.89,122.08 427.99,117.17 428.00,108.00
             428.04,81.14 449.33,60.55 475.00,56.29 Z
           M 112.00,221.42
           C 95.12,223.87 84.71,226.22 71.00,237.46
             35.68,266.42 35.65,321.56 71.00,350.54
             87.72,364.24 108.95,368.83 130.00,365.70
             138.23,364.48 147.86,360.45 155.00,356.27
             161.68,352.36 166.68,347.76 171.83,342.00
             207.25,302.33 187.82,236.95 136.00,223.63
             129.28,221.90 118.87,220.59 112.00,221.42 Z
           M 295.00,221.42
           C 279.08,223.70 268.05,225.86 255.00,236.47
             226.84,259.35 219.45,295.87 235.76,328.00
             242.77,341.82 254.85,353.65 269.00,360.10
             282.72,366.36 296.23,367.78 311.00,365.84
             320.07,364.65 329.04,361.09 337.00,356.69
             343.42,353.14 348.94,348.36 353.91,343.00
             390.63,303.43 370.48,234.58 317.00,223.21
             310.36,221.80 301.70,220.61 295.00,221.42 Z
           M 478.00,221.42
           C 461.93,223.72 451.21,225.83 438.00,236.46
             430.64,242.39 423.22,250.64 418.78,259.00
             399.73,294.88 413.04,340.83 450.00,359.19
             463.97,366.13 478.74,367.85 494.00,365.84
             503.07,364.65 512.04,361.09 520.00,356.69
             527.30,352.66 534.18,346.54 539.33,340.00
             571.57,299.08 552.87,234.62 500.00,223.21
             493.42,221.79 484.65,220.62 478.00,221.42 Z
           M 109.00,239.30
           C 126.49,237.56 144.18,242.20 156.71,255.17
             183.01,282.37 174.91,328.72 140.00,344.27
             129.97,348.73 124.73,349.12 114.00,349.00
             76.94,348.56 53.00,308.68 65.09,275.00
             72.15,255.32 88.90,243.05 109.00,239.30 Z
           M 292.00,239.30
           C 308.93,237.62 323.87,241.31 336.83,252.81
             359.13,272.59 361.73,309.21 340.96,331.00
             334.55,337.73 331.37,340.28 323.00,344.22
             313.90,348.50 306.86,349.11 297.00,349.00
             257.94,348.54 234.10,305.48 249.51,271.00
             257.41,253.33 273.41,242.77 292.00,239.30 Z
           M 475.00,239.29
           C 490.56,237.81 504.51,240.69 517.00,250.52
             549.48,276.06 543.28,326.68 506.00,344.22
             496.91,348.50 489.86,349.11 480.00,349.00
             451.49,348.66 428.04,324.31 428.00,296.00
             428.00,296.00 428.00,291.00 428.00,291.00
             428.04,264.14 449.33,243.55 475.00,239.29 Z
           M 112.00,404.42
           C 94.76,406.92 83.78,409.50 70.00,421.30
             62.58,427.65 57.16,434.31 52.76,443.00
             34.28,479.41 47.92,525.39 86.00,542.69
             99.13,548.65 113.73,550.58 128.00,548.71
             136.56,547.59 147.59,543.37 155.00,538.99
             162.68,534.43 169.75,528.29 174.96,521.00
             183.52,509.03 188.91,495.75 189.91,481.00
             190.25,476.00 189.72,473.75 189.15,469.00
             185.56,438.96 165.77,414.28 136.00,406.63
             129.28,404.90 118.87,403.59 112.00,404.42 Z
           M 295.00,404.42
           C 279.08,406.70 268.05,408.86 255.00,419.47
             247.11,425.88 240.06,433.98 235.32,443.00
             219.35,473.40 227.77,513.24 255.00,534.32
             270.86,546.59 291.27,551.29 311.00,548.71
             320.09,547.52 330.21,543.53 338.00,538.80
             383.87,510.96 383.79,445.90 340.00,416.03
             332.89,411.18 325.42,408.00 317.00,406.21
             310.36,404.80 301.70,403.61 295.00,404.42 Z
           M 478.00,404.42
           C 461.49,406.78 450.36,409.09 437.00,420.29
             400.24,451.10 400.89,507.31 440.00,535.84
             445.96,540.19 454.88,544.56 462.00,546.57
             471.67,549.31 483.04,550.02 493.00,548.71
             503.32,547.35 513.20,543.67 522.00,538.19
             566.77,510.29 566.24,443.54 522.00,415.44
             515.62,411.38 507.40,407.81 500.00,406.21
             493.42,404.79 484.65,403.62 478.00,404.42 Z
           M 108.00,422.30
           C 118.78,421.23 130.03,421.69 140.00,426.32
             146.20,429.20 154.25,434.85 158.70,440.00
             166.76,449.34 171.85,461.62 172.00,474.00
             172.00,474.00 172.00,480.00 172.00,480.00
             171.68,507.22 149.18,528.49 123.00,531.71
             91.80,535.55 62.37,510.65 62.00,479.00
             61.87,467.27 63.75,456.99 70.36,447.00
             73.60,442.11 77.33,437.48 82.00,433.90
             90.21,427.61 97.87,424.21 108.00,422.30 Z
           M 291.00,422.30
           C 308.75,420.53 324.42,423.89 337.91,436.30
             358.54,455.28 360.64,489.18 343.48,511.00
             333.92,523.16 321.20,529.84 306.00,531.71
             286.48,534.12 266.21,524.96 254.79,509.00
             238.83,486.72 242.21,451.89 264.00,434.52
             272.29,427.91 280.64,424.23 291.00,422.30 Z
           M 473.00,422.32
           C 490.88,420.37 507.33,423.81 520.83,436.44
             541.27,455.56 543.76,489.04 526.48,511.00
             517.14,522.87 504.76,529.45 490.00,531.57
             483.79,532.46 478.14,532.00 472.00,530.92
             428.60,523.24 412.93,467.28 444.04,437.09
             452.25,429.12 461.97,424.72 473.00,422.32 Z" />
</svg>
