<?xml version="1.0" encoding="UTF-8" standalone="no"?>
<!DOCTYPE svg PUBLIC "-//W3C//DTD SVG 20010904//EN"
              "http://www.w3.org/TR/2001/REC-SVG-20010904/DTD/svg10.dtd">

<svg xmlns="http://www.w3.org/2000/svg"
     width="2in" height="2in"
     viewBox="0 0 600 600">
  <path id="Selection"
        fill="#6F7D97" stroke="black" stroke-width="1"
        d="M 299.00,398.00
           C 299.00,398.00 301.00,398.00 301.00,398.00
             303.51,404.58 316.43,423.87 320.95,431.00
             320.95,431.00 355.32,486.00 355.32,486.00
             362.56,497.48 376.54,522.42 386.01,530.19
             390.72,534.05 398.14,538.49 404.00,540.22
             408.92,541.67 412.03,541.50 417.00,541.07
             439.02,539.18 447.97,517.50 448.00,498.00
             448.00,498.00 448.00,80.00 448.00,80.00
             447.96,52.79 428.85,31.04 401.00,31.00
             401.00,31.00 198.00,31.00 198.00,31.00
             191.58,31.01 189.18,31.27 183.00,33.36
             178.38,34.92 174.91,36.85 171.00,39.76
             148.66,56.38 152.00,79.65 152.00,104.00
             152.00,104.00 152.00,138.00 152.00,138.00
             152.00,138.00 152.00,498.00 152.00,498.00
             152.03,517.23 160.93,537.69 182.00,540.69
             187.27,541.66 189.75,541.94 195.00,540.69
             201.32,538.79 208.94,534.33 213.99,530.19
             223.46,522.42 237.44,497.48 244.68,486.00
             244.68,486.00 279.05,431.00 279.05,431.00
             283.57,423.87 296.49,404.58 299.00,398.00 Z
           M 194.00,54.11
           C 194.00,54.11 264.00,54.11 264.00,54.11
             264.00,54.11 399.00,54.11 399.00,54.11
             415.89,54.03 423.97,63.56 424.00,80.00
             424.00,80.00 424.00,157.00 424.00,157.00
             424.00,157.00 424.00,499.00 424.00,499.00
             424.00,502.15 424.10,504.93 423.21,508.00
             422.75,509.61 421.93,511.56 421.01,512.96
             416.85,519.25 410.84,518.90 405.00,515.29
             395.91,509.67 393.11,503.62 387.68,495.00
             387.68,495.00 326.32,397.00 326.32,397.00
             326.32,397.00 311.95,374.00 311.95,374.00
             309.32,369.91 306.14,365.56 301.00,364.65
             296.00,363.76 292.06,367.21 289.44,371.04
             289.44,371.04 273.68,396.00 273.68,396.00
             273.68,396.00 229.05,467.00 229.05,467.00
             229.05,467.00 205.10,505.00 205.10,505.00
             203.07,507.89 200.65,510.49 198.00,512.82
             196.51,514.12 194.76,515.51 193.00,516.43
             190.77,517.59 188.51,518.08 186.00,517.88
             175.70,517.05 175.01,502.85 175.00,495.00
             175.00,495.00 175.00,160.00 175.00,160.00
             175.00,160.00 175.00,84.00 175.00,84.00
             175.02,70.18 179.02,57.93 194.00,54.11 Z" />
</svg>
