<?xml version="1.0" encoding="UTF-8" standalone="no"?>
<!DOCTYPE svg PUBLIC "-//W3C//DTD SVG 20010904//EN"
              "http://www.w3.org/TR/2001/REC-SVG-20010904/DTD/svg10.dtd">

<svg xmlns="http://www.w3.org/2000/svg"
     width="2in" height="2in"
     viewBox="0 0 600 600">
  <path id="Selection"
        fill="#000000" stroke="black" stroke-width="1"
        d="M 349.00,439.00
           C 349.00,439.00 374.00,456.72 374.00,456.72
             374.00,456.72 423.00,490.67 423.00,490.67
             432.09,496.81 445.16,508.24 456.00,508.91
             467.50,509.62 476.65,502.65 480.45,492.00
             480.45,492.00 486.00,466.00 486.00,466.00
             486.00,466.00 496.00,415.00 496.00,415.00
             496.00,415.00 537.20,205.00 537.20,205.00
             537.20,205.00 553.42,122.00 553.42,122.00
             553.42,122.00 558.99,91.00 558.99,91.00
             559.29,89.14 559.32,87.83 558.99,86.00
             555.11,72.95 542.71,77.69 534.00,81.20
             534.00,81.20 451.00,115.00 451.00,115.00
             451.00,115.00 283.00,183.40 283.00,183.40
             283.00,183.40 140.00,241.42 140.00,241.42
             140.00,241.42 69.00,270.40 69.00,270.40
             65.68,271.73 61.99,273.08 59.04,275.11
             52.70,279.47 47.65,289.23 48.33,297.00
             50.01,316.48 65.65,319.10 81.00,323.72
             81.00,323.72 111.00,332.86 111.00,332.86
             111.00,332.86 214.00,363.98 214.00,363.98
             214.00,363.98 240.00,371.86 240.00,371.86
             242.83,372.67 250.59,374.61 252.40,376.56
             254.67,379.00 253.86,384.73 254.09,388.00
             254.09,388.00 255.04,398.00 255.04,398.00
             255.04,398.00 255.04,407.00 255.04,407.00
             255.04,407.00 256.00,418.00 256.00,418.00
             256.00,418.00 258.00,458.00 258.00,458.00
             258.00,458.00 259.00,474.00 259.00,474.00
             259.00,474.00 260.00,491.00 260.00,491.00
             260.10,499.49 258.95,511.33 268.02,515.59
             270.23,516.63 272.56,517.09 275.00,516.77
             282.47,515.82 292.44,502.75 297.42,497.00
             297.42,497.00 349.00,439.00 349.00,439.00 Z
           M 500.00,122.00
           C 500.00,122.00 500.00,123.00 500.00,123.00
             500.00,123.00 499.00,122.00 499.00,122.00
             499.00,122.00 500.00,122.00 500.00,122.00 Z
           M 499.00,123.00
           C 493.47,130.72 485.90,136.66 479.00,143.09
             479.00,143.09 457.00,164.99 457.00,164.99
             457.00,164.99 446.00,175.01 446.00,175.01
             446.00,175.01 386.00,233.04 386.00,233.04
             386.00,233.04 364.00,254.96 364.00,254.96
             364.00,254.96 355.00,263.04 355.00,263.04
             355.00,263.04 333.00,284.96 333.00,284.96
             333.00,284.96 323.00,294.01 323.00,294.01
             323.00,294.01 302.00,314.96 302.00,314.96
             302.00,314.96 280.00,336.00 280.00,336.00
             276.06,339.94 266.29,350.96 261.00,351.52
             258.36,351.79 246.24,347.72 243.00,346.67
             243.00,346.67 209.00,336.42 209.00,336.42
             209.00,336.42 122.00,310.28 122.00,310.28
             122.00,310.28 92.00,301.28 92.00,301.28
             92.00,301.28 74.00,296.00 74.00,296.00
             74.00,296.00 91.00,288.20 91.00,288.20
             91.00,288.20 121.00,276.00 121.00,276.00
             121.00,276.00 216.00,237.40 216.00,237.40
             216.00,237.40 411.00,158.00 411.00,158.00
             411.00,158.00 470.00,134.00 470.00,134.00
             470.00,134.00 499.00,123.00 499.00,123.00 Z
           M 526.00,132.00
           C 526.00,132.00 520.42,161.00 520.42,161.00
             520.42,161.00 502.40,253.00 502.40,253.00
             502.40,253.00 474.20,397.00 474.20,397.00
             474.20,397.00 457.00,484.00 457.00,484.00
             457.00,484.00 409.00,451.02 409.00,451.02
             409.00,451.02 286.00,366.00 286.00,366.00
             289.37,358.88 306.44,343.50 313.00,337.72
             313.00,337.72 336.00,315.00 336.00,315.00
             336.00,315.00 354.00,298.00 354.00,298.00
             354.00,298.00 410.00,243.96 410.00,243.96
             410.00,243.96 471.00,184.91 471.00,184.91
             471.00,184.91 493.00,163.01 493.00,163.01
             493.00,163.01 505.00,152.00 505.00,152.00
             510.86,146.20 519.73,136.49 526.00,132.00 Z
           M 280.00,391.00
           C 280.00,391.00 328.00,424.00 328.00,424.00
             328.00,424.00 314.28,441.00 314.28,441.00
             314.28,441.00 284.00,474.00 284.00,474.00
             284.00,474.00 283.00,462.00 283.00,462.00
             283.00,462.00 282.00,447.00 282.00,447.00
             282.00,447.00 281.00,423.00 281.00,423.00
             281.00,423.00 280.00,402.00 280.00,402.00
             280.00,402.00 280.00,391.00 280.00,391.00 Z" />
</svg>
