<?xml version="1.0" encoding="UTF-8" standalone="no"?>
<!DOCTYPE svg PUBLIC "-//W3C//DTD SVG 20010904//EN"
              "http://www.w3.org/TR/2001/REC-SVG-20010904/DTD/svg10.dtd">

<svg xmlns="http://www.w3.org/2000/svg"
     width="2in" height="2in"
     viewBox="0 0 600 600">
  <path id="Selection"
        fill="#6F7D97" stroke="black" stroke-width="1"
        d="M 213.00,112.00
           C 213.00,112.00 111.00,112.00 111.00,112.00
             105.91,112.01 101.43,112.04 97.34,115.64
             91.36,120.90 91.71,132.15 98.21,136.86
             104.42,141.35 124.77,140.00 133.00,140.00
             133.00,140.00 133.00,477.00 133.00,477.00
             133.05,508.90 155.46,535.80 185.00,545.92
             192.83,548.60 206.66,549.99 215.00,550.00
             215.00,550.00 425.00,550.00 425.00,550.00
             433.34,549.99 447.17,548.60 455.00,545.92
             484.54,535.80 506.95,508.90 507.00,477.00
             507.00,477.00 507.00,140.00 507.00,140.00
             515.23,140.00 535.58,141.35 541.79,136.86
             548.29,132.15 548.64,120.90 542.66,115.64
             538.57,112.04 534.09,112.01 529.00,112.00
             529.00,112.00 427.00,112.00 427.00,112.00
             427.00,101.29 427.32,88.31 424.23,78.00
             422.74,73.04 420.50,68.31 417.64,64.00
             400.05,37.43 377.27,38.00 349.00,38.00
             349.00,38.00 308.00,38.00 308.00,38.00
             281.37,38.00 251.03,34.00 230.09,54.17
             213.22,70.41 213.00,90.37 213.00,112.00 Z
           M 399.00,112.00
           C 399.00,112.00 241.00,112.00 241.00,112.00
             241.00,94.46 239.06,74.55 260.00,67.60
             263.55,66.42 267.29,66.05 271.00,66.00
             271.00,66.00 354.00,66.00 354.00,66.00
             367.17,66.00 380.46,64.06 390.70,74.30
             400.93,84.53 399.00,98.83 399.00,112.00 Z
           M 480.00,140.00
           C 480.00,140.00 480.00,469.00 480.00,469.00
             479.95,499.89 462.07,521.95 430.00,522.00
             430.00,522.00 210.00,522.00 210.00,522.00
             179.43,521.95 160.35,501.03 160.00,471.00
             160.00,471.00 160.00,360.00 160.00,360.00
             160.00,360.00 160.00,140.00 160.00,140.00
             160.00,140.00 480.00,140.00 480.00,140.00 Z
           M 319.00,191.64
           C 309.51,193.31 306.13,198.67 306.00,208.00
             306.00,208.00 306.00,253.00 306.00,253.00
             306.00,253.00 306.00,451.00 306.00,451.00
             306.01,455.69 305.92,459.73 308.53,463.90
             313.08,471.15 324.51,471.99 330.20,465.61
             333.97,461.39 333.99,456.29 334.00,451.00
             334.00,451.00 334.00,252.00 334.00,252.00
             334.00,252.00 334.00,208.00 334.00,208.00
             333.86,198.08 329.44,191.80 319.00,191.64 Z
           M 224.00,207.53
           C 214.83,210.48 213.11,217.17 213.00,226.00
             213.00,226.00 213.00,262.00 213.00,262.00
             213.00,262.00 213.00,434.00 213.00,434.00
             213.01,439.79 213.02,445.35 217.22,449.89
             223.03,456.18 233.21,455.98 238.35,448.96
             241.21,445.05 240.99,441.56 241.00,437.00
             241.00,437.00 241.00,259.00 241.00,259.00
             241.00,259.00 241.00,232.00 241.00,232.00
             241.00,228.51 241.27,219.92 240.43,217.00
             238.21,209.26 231.41,206.38 224.00,207.53 Z
           M 409.00,207.57
           C 401.28,210.59 399.10,215.08 399.00,223.00
             399.00,223.00 399.00,264.00 399.00,264.00
             399.00,264.00 399.00,437.00 399.00,437.00
             399.01,441.04 398.79,444.37 401.01,447.98
             405.60,455.46 416.30,456.64 422.47,450.47
             426.86,446.08 426.99,439.78 427.00,434.00
             427.00,434.00 427.00,258.00 427.00,258.00
             427.00,258.00 426.32,219.00 426.32,219.00
             424.20,209.83 418.14,206.00 409.00,207.57 Z" />
</svg>
