<?xml version="1.0" encoding="UTF-8" standalone="no"?>
<!DOCTYPE svg PUBLIC "-//W3C//DTD SVG 20010904//EN"
              "http://www.w3.org/TR/2001/REC-SVG-20010904/DTD/svg10.dtd">

<svg xmlns="http://www.w3.org/2000/svg"
     width="2in" height="2in"
     viewBox="0 0 600 600">
  <path id="Selection"
        fill="#FFFFFF" stroke="black" stroke-width="1"
        d="M 300.00,27.42
           C 300.00,27.42 275.00,29.28 275.00,29.28
             258.05,31.40 241.22,35.33 225.00,40.67
             157.09,63.03 101.64,114.85 72.86,180.00
             31.74,273.09 50.69,383.51 120.09,458.00
             145.92,485.73 177.91,506.77 213.00,520.80
             233.82,529.13 266.62,537.73 289.00,538.00
             289.00,538.00 309.00,538.99 309.00,538.99
             309.00,538.99 325.00,538.00 325.00,538.00
             341.30,537.80 369.27,531.68 385.00,526.66
             467.96,500.14 530.90,433.87 553.85,350.00
             557.81,335.53 561.93,312.89 562.00,298.00
             562.00,298.00 562.99,285.00 562.99,285.00
             562.99,285.00 562.00,265.00 562.00,265.00
             561.81,249.17 556.32,224.33 551.72,209.00
             527.02,126.69 463.31,62.98 381.00,38.28
             365.67,33.68 340.83,28.19 325.00,28.00
             316.63,27.91 308.37,26.41 300.00,27.42 Z
           M 455.00,187.00
           C 453.76,200.68 441.71,211.57 432.00,220.00
             432.00,220.00 463.00,211.00 463.00,211.00
             460.08,220.17 450.87,228.39 444.00,234.96
             441.43,237.42 436.53,241.08 435.02,244.01
             433.55,246.88 434.04,252.67 434.00,256.00
             433.89,265.10 431.44,279.98 429.42,289.00
             415.90,349.35 373.50,398.53 314.00,417.02
             304.01,420.13 283.14,424.88 273.00,425.00
             273.00,425.00 251.00,425.00 251.00,425.00
             232.62,424.97 207.81,418.27 191.00,410.86
             184.88,408.16 170.29,402.39 167.00,397.00
             167.00,397.00 187.00,397.00 187.00,397.00
             200.94,396.98 220.50,391.41 233.00,385.24
             240.15,381.72 247.67,378.05 253.00,372.00
             230.19,371.50 202.65,352.28 199.00,329.00
             199.00,329.00 210.00,329.91 210.00,329.91
             210.00,329.91 222.00,329.00 222.00,329.00
             222.00,329.00 222.00,327.00 222.00,327.00
             216.89,326.46 215.52,325.53 211.00,323.24
             196.37,315.83 186.96,305.24 180.92,290.00
             179.01,285.16 178.04,280.15 177.43,275.00
             177.22,273.20 176.78,270.30 178.60,269.12
             180.50,267.90 184.11,269.68 186.00,270.39
             191.25,272.37 195.35,273.72 201.00,274.00
             194.40,266.44 190.15,263.66 184.90,254.00
             175.76,237.21 174.67,210.01 186.00,194.00
             192.23,198.47 192.70,200.39 197.51,205.12
             204.20,211.69 211.51,218.00 219.00,223.63
             241.58,240.59 269.00,251.79 297.00,255.28
             297.00,255.28 312.00,257.00 312.00,257.00
             310.73,250.28 309.46,246.06 310.17,239.00
             313.32,207.51 337.77,182.38 370.00,182.00
             380.57,181.88 391.59,183.53 401.00,188.67
             405.07,190.89 415.52,199.70 418.28,200.00
             427.52,201.01 446.21,190.22 455.00,187.00 Z" />
</svg>
