<?xml version="1.0" encoding="UTF-8" standalone="no"?>
<!DOCTYPE svg PUBLIC "-//W3C//DTD SVG 20010904//EN"
              "http://www.w3.org/TR/2001/REC-SVG-20010904/DTD/svg10.dtd">

<svg xmlns="http://www.w3.org/2000/svg"
     width="2in" height="2in"
     viewBox="0 0 600 600">
  <path id="Selection"
        fill="#000000" stroke="black" stroke-width="1"
        d="M 49.00,55.00
           C 49.00,55.00 49.00,522.00 49.00,522.00
             49.00,522.00 561.00,522.00 561.00,522.00
             561.00,522.00 561.00,55.00 561.00,55.00
             561.00,55.00 49.00,55.00 49.00,55.00 Z
           M 531.00,85.00
           C 531.00,85.00 531.00,165.00 531.00,165.00
             531.00,165.00 79.00,165.00 79.00,165.00
             79.00,165.00 79.00,85.00 79.00,85.00
             79.00,85.00 531.00,85.00 531.00,85.00 Z
           M 102.00,110.00
           C 102.00,110.00 102.00,139.00 102.00,139.00
             102.00,139.00 131.00,139.00 131.00,139.00
             131.00,139.00 131.00,110.00 131.00,110.00
             131.00,110.00 102.00,110.00 102.00,110.00 Z
           M 152.00,110.00
           C 152.00,110.00 152.00,139.00 152.00,139.00
             152.00,139.00 181.00,139.00 181.00,139.00
             181.00,139.00 181.00,110.00 181.00,110.00
             181.00,110.00 152.00,110.00 152.00,110.00 Z
           M 202.00,110.00
           C 202.00,110.00 202.00,139.00 202.00,139.00
             202.00,139.00 231.00,139.00 231.00,139.00
             231.00,139.00 231.00,110.00 231.00,110.00
             231.00,110.00 202.00,110.00 202.00,110.00 Z
           M 531.00,195.00
           C 531.00,195.00 531.00,493.00 531.00,493.00
             531.00,493.00 79.00,493.00 79.00,493.00
             79.00,493.00 79.00,195.00 79.00,195.00
             79.00,195.00 531.00,195.00 531.00,195.00 Z
           M 107.00,226.00
           C 107.00,226.00 107.00,340.00 107.00,340.00
             107.00,340.00 288.00,340.00 288.00,340.00
             288.00,340.00 288.00,226.00 288.00,226.00
             288.00,226.00 107.00,226.00 107.00,226.00 Z
           M 321.00,226.00
           C 321.00,226.00 321.00,340.00 321.00,340.00
             321.00,340.00 502.00,340.00 502.00,340.00
             502.00,340.00 502.00,226.00 502.00,226.00
             502.00,226.00 321.00,226.00 321.00,226.00 Z
           M 259.00,255.00
           C 259.00,255.00 259.00,302.00 259.00,302.00
             259.00,302.00 257.98,309.40 257.98,309.40
             257.98,309.40 252.00,311.00 252.00,311.00
             252.00,311.00 230.00,311.00 230.00,311.00
             230.00,311.00 136.00,311.00 136.00,311.00
             136.00,311.00 136.00,255.00 136.00,255.00
             136.00,255.00 259.00,255.00 259.00,255.00 Z
           M 473.00,255.00
           C 473.00,255.00 473.00,311.00 473.00,311.00
             473.00,311.00 350.00,311.00 350.00,311.00
             350.00,311.00 350.00,255.00 350.00,255.00
             350.00,255.00 473.00,255.00 473.00,255.00 Z
           M 107.00,371.00
           C 107.00,371.00 107.00,462.00 107.00,462.00
             107.00,462.00 502.00,462.00 502.00,462.00
             502.00,462.00 502.00,371.00 502.00,371.00
             502.00,371.00 107.00,371.00 107.00,371.00 Z
           M 473.00,400.00
           C 473.00,400.00 473.00,433.00 473.00,433.00
             473.00,433.00 136.00,433.00 136.00,433.00
             136.00,433.00 136.00,400.00 136.00,400.00
             136.00,400.00 473.00,400.00 473.00,400.00 Z" />
</svg>
